<svg width="15" height="15" viewBox="0 0 15 15" fill="none" xmlns="http://www.w3.org/2000/svg">
<g clipPath="url(#clip0_1859_1310)">
<path d="M0 5.33661H1.40252V1.40252H5.33661V0H0V5.33661Z" fill="#FF9C08"/>
<path d="M9.66333 0V1.40252H13.5974V5.33661H14.9999V0H9.66333Z" fill="#FF9C08"/>
<path d="M13.5974 13.5975H9.66333V15H14.9999V9.66339H13.5974V13.5975Z" fill="#FF9C08"/>
<path d="M3.93408 13.5975H1.40252V9.66339H0V15H5.33661V13.4432H3.93408V13.5975Z" fill="#FF9C08"/>
</g>
<g clipPath="url(#clip1_1859_1310)">
<path d="M11.2737 9.35625L8.64967 4.53266C8.22805 3.82291 7.20028 3.8219 6.77823 4.53266L4.15425 9.35625C3.7232 10.0815 4.24507 10.9999 5.08975 10.9999H10.338C11.182 10.9999 11.7047 10.0822 11.2737 9.35625ZM7.71388 10.1294C7.47391 10.1294 7.27863 9.93412 7.27863 9.69415C7.27863 9.45418 7.47391 9.2589 7.71388 9.2589C7.95385 9.2589 8.14913 9.45418 8.14913 9.69415C8.14913 9.93412 7.95385 10.1294 7.71388 10.1294ZM8.14913 8.3884C8.14913 8.62837 7.95385 8.82365 7.71388 8.82365C7.47391 8.82365 7.27863 8.62837 7.27863 8.3884V6.21215C7.27863 5.97218 7.47391 5.7769 7.71388 5.7769C7.95385 5.7769 8.14913 5.97218 8.14913 6.21215V8.3884Z" fill="#FF9C08"/>
</g>
<defs>
<clipPath id="clip0_1859_1310">
<rect width="15" height="15" fill="white"/>
</clipPath>
<clipPath id="clip1_1859_1310">
<rect width="7.42829" height="7" fill="white" transform="translate(4 4)"/>
</clipPath>
</defs>
</svg>
