<svg width="15" height="15" viewBox="0 0 15 15" fill="none" xmlns="http://www.w3.org/2000/svg">
<rect width="15" height="15" rx="3" fill="#52C41A"/>
<g clipPath="url(#clip0_2269_2913)">
<path d="M6.47889 4.18688C6.42138 4.06469 6.33513 4 6.22731 4H5.8823C5.7673 4 5.68104 4.0575 5.62354 4.17251L3.02156 9.81491C2.99281 9.87242 2.99281 9.92273 3.02156 9.96586C3.05031 10.009 3.10063 10.0377 3.16532 10.0377H3.90566C4.02066 10.0377 4.10692 9.98023 4.15723 9.87242L4.84007 8.34861H7.16891L7.85175 9.87242C7.8805 9.92992 7.91644 9.97305 7.95238 9.99461C7.98832 10.0234 8.03863 10.0377 8.11051 10.0377H8.84367C8.90836 10.0377 8.95148 10.0162 8.98742 9.96586C9.01617 9.92273 9.02336 9.86523 8.99461 9.80773L6.47889 4.18688ZM5.34322 7.28482L6.04762 5.76819L6.69452 7.28482H5.34322Z" fill="white"/>
<path d="M10.9568 4.05031C10.928 4.01438 10.8921 4 10.8418 4H10.0871C10.0367 4 10.0008 4.01438 9.96487 4.05031C9.92893 4.08625 9.91455 4.12219 9.91455 4.16532V9.87242C9.91455 9.91554 9.92893 9.95867 9.96487 9.98742C10.0008 10.0162 10.0367 10.0377 10.0871 10.0377H10.849C10.8921 10.0377 10.9352 10.0234 10.964 9.98742C10.9927 9.95148 11.0071 9.91554 11.0071 9.87242V4.16532C10.9999 4.115 10.9855 4.07907 10.9568 4.05031Z" fill="white"/>
</g>
<defs>
<clipPath id="clip0_2269_2913">
<rect width="8" height="6.03774" fill="white" transform="translate(3 4)"/>
</clipPath>
</defs>
</svg>
