<svg width="36" height="40" viewBox="0 0 36 40" fill="none" xmlns="http://www.w3.org/2000/svg">
<g clipPath="url(#clip0_2646_1624)">
<path d="M10.8907 26.3594C9.50012 24.1875 8.17199 22.1406 6.87512 20.0781C4.12512 15.7188 3.87512 11.1719 6.35949 6.6875C8.90637 2.09375 13.0001 -0.203123 18.2814 0.0156271C27.9845 0.406252 33.7345 11.5938 28.5001 19.7969C27.1095 21.9688 25.7189 24.125 24.3282 26.3125C25.8907 26.7031 27.4376 26.9688 28.8907 27.5156C30.4064 28.0781 31.9532 28.7344 33.2657 29.6563C35.8595 31.5 35.8126 34.2812 33.3126 36.2344C31.2189 37.8594 28.7501 38.6094 26.2189 39.1094C19.3751 40.4531 12.547 40.4063 5.85949 38.2344C4.42199 37.7656 3.01574 37.0313 1.81262 36.1406C-0.624882 34.3125 -0.562382 31.5938 1.82824 29.6875C3.62512 28.2656 5.75012 27.5781 7.92199 27.0156C8.85949 26.7656 9.82824 26.5938 10.8907 26.3594ZM17.5939 32.4531C17.7657 32.2188 17.8751 32.0781 17.9689 31.9219C20.8439 27.4375 23.7189 22.9531 26.5782 18.4531C27.922 16.3281 28.3595 13.9688 28.047 11.5C27.5001 7.25 24.3282 3.70313 20.1876 2.65625C15.9845 1.59375 11.6876 3.15625 9.07824 6.70313C6.57824 10.1094 6.35949 14.875 8.62512 18.4531C11.4845 22.9844 14.3907 27.4844 17.2657 32C17.3439 32.125 17.4376 32.2344 17.5939 32.4531ZM17.5782 37.6406C21.6251 37.5781 25.6095 37.25 29.3751 35.7188C30.4376 35.2969 31.422 34.6094 32.3282 33.8906C33.0157 33.3438 33.0001 32.5781 32.3439 31.9844C31.672 31.3906 30.922 30.8438 30.1095 30.4531C28.0314 29.4375 25.797 29 23.5157 28.6563C23.0157 28.5781 22.7657 28.6875 22.5157 29.1094C21.297 31.0781 20.047 33.0156 18.797 34.9688C18.0157 36.1875 17.1407 36.1719 16.3595 34.9531C15.1407 33.0469 13.9064 31.1406 12.7189 29.2188C12.422 28.7344 12.1407 28.5156 11.547 28.6719C10.4064 28.9531 9.25012 29.0781 8.10949 29.375C6.31262 29.8438 4.54699 30.4063 3.12512 31.6563C2.09387 32.5625 2.07824 33.4219 3.17199 34.25C3.96887 34.8594 4.87512 35.375 5.79699 35.7344C9.59387 37.2344 13.5782 37.5781 17.5782 37.6406Z" fill="white"/>
<path d="M17.5938 32.4531C17.4376 32.2344 17.3438 32.125 17.2657 31.9844C14.3751 27.4687 11.4688 22.9687 8.62508 18.4375C6.35946 14.8594 6.57821 10.0781 9.07821 6.6875C11.6876 3.14062 15.9845 1.57812 20.1876 2.64062C24.3126 3.6875 27.4845 7.23437 28.047 11.4844C28.3751 13.9687 27.9376 16.3125 26.5782 18.4375C23.7188 22.9375 20.8438 27.4219 17.9688 31.9062C17.8595 32.0781 17.7657 32.2187 17.5938 32.4531ZM17.4688 18.7969C20.6876 18.875 23.3438 16.3125 23.4376 13.0625C23.5157 9.84375 20.9532 7.1875 17.7032 7.09375C14.4845 7.01562 11.8282 9.57812 11.7345 12.8281C11.6563 16.0469 14.2188 18.7031 17.4688 18.7969Z" fill="#FF000D"/>
<path d="M17.5782 37.6406C13.5782 37.5781 9.59379 37.2344 5.81254 35.7344C4.89067 35.3594 3.98442 34.8438 3.18754 34.25C2.09379 33.4219 2.10942 32.5625 3.14067 31.6563C4.56254 30.4063 6.32817 29.8281 8.12504 29.375C9.25004 29.0781 10.4219 28.9531 11.5625 28.6719C12.1719 28.5313 12.4375 28.75 12.7344 29.2188C13.9219 31.1406 15.1563 33.0469 16.375 34.9531C17.1563 36.1719 18.0469 36.1875 18.8125 34.9688C20.0625 33.0156 21.3125 31.0781 22.5313 29.1094C22.7813 28.7031 23.0313 28.5781 23.5313 28.6563C25.7969 29 28.0469 29.4375 30.125 30.4531C30.9219 30.8438 31.6875 31.3906 32.3594 31.9844C33.0157 32.5781 33.0313 33.3438 32.3438 33.8906C31.4375 34.6094 30.4532 35.2813 29.3907 35.7188C25.6094 37.25 21.625 37.5781 17.5782 37.6406Z" fill="#FF000D"/>
<path d="M17.4688 18.7969C14.2188 18.7188 11.6563 16.0469 11.7344 12.8281C11.8125 9.57812 14.4844 7.01563 17.7032 7.09375C20.9532 7.17188 23.5157 9.84375 23.4375 13.0625C23.3594 16.3125 20.6875 18.875 17.4688 18.7969ZM17.6094 9.45312C15.6875 9.4375 14.125 10.9531 14.0938 12.8906C14.0625 14.8438 15.6094 16.4375 17.5625 16.4375C19.4844 16.4531 21.0469 14.9375 21.0782 13C21.125 11.0469 19.5782 9.46875 17.6094 9.45312Z" fill="white"/>
<path d="M17.6094 9.45312C19.5625 9.46875 21.1094 11.0469 21.0781 13C21.0469 14.9375 19.4844 16.4531 17.5625 16.4375C15.6094 16.4219 14.0625 14.8437 14.0937 12.875C14.1406 10.9531 15.6875 9.4375 17.6094 9.45312Z" fill="#FF000D"/>
</g>
<defs>
<clipPath id="clip0_2646_1624">
<rect width="35.1875" height="40" fill="white"/>
</clipPath>
</defs>
</svg>
