<svg width="30" height="30" viewBox="0 0 30 30" fill="none" xmlns="http://www.w3.org/2000/svg">
<rect width="30" height="30" rx="12" fill="#00199F"/>
<g clipPath="url(#clip0_1741_288)">
<path d="M23.0612 12.0642C23.0361 11.5892 22.7369 11.3107 22.2619 11.2397C22.0642 11.2103 21.8633 11.1611 21.6668 11.1731C21.219 11.1982 21.0509 10.934 20.8903 10.5714C20.7298 10.2089 20.8074 9.95337 21.0673 9.69893C21.183 9.58536 21.2791 9.44996 21.3774 9.31892C21.7476 8.82642 21.7301 8.40164 21.3064 7.95501C20.981 7.61212 20.6414 7.28233 20.3061 6.94927C19.6618 6.30718 19.3146 6.28861 18.6201 6.85427C18.5218 6.93508 18.4235 7.01698 18.3231 7.0956C17.8054 7.50183 17.0378 7.19825 16.9362 6.54305C16.8969 6.29189 16.9013 6.03308 16.8489 5.7852C16.7517 5.32438 16.4645 5.03936 15.9807 5.02844C15.3463 5.01206 14.6987 4.96183 14.0763 5.05684C13.7847 5.10161 13.4931 5.4161 13.29 5.67818C13.1644 5.8398 13.1928 6.13027 13.1765 6.36505C13.1502 6.75381 13.0323 7.03117 12.6173 7.1917C12.2177 7.34567 11.9458 7.28124 11.6389 7.00606C11.3637 6.75927 11.0274 6.58127 10.7358 6.38471C10.4869 6.48081 10.2816 6.50374 10.1603 6.61731C9.62963 7.11307 9.07271 7.59574 8.63591 8.16904C8.47102 8.38635 8.55947 8.84171 8.62281 9.1715C8.65884 9.3615 8.86086 9.52967 9.01047 9.68692C9.25289 9.94245 9.38284 10.1827 9.20375 10.554C9.03667 10.9001 8.8969 11.2004 8.43826 11.172C8.26026 11.1611 8.0779 11.2124 7.89772 11.2354C7.32769 11.3075 7.04377 11.5826 7.01975 12.1581C6.99463 12.7576 6.99463 13.3593 7.0132 13.9588C7.02848 14.4557 7.29056 14.7746 7.79616 14.8586C8.04732 14.9001 8.31268 14.8914 8.54855 14.9711C8.74511 15.0377 8.95805 15.1644 9.07817 15.3282C9.38939 15.7497 9.29985 16.1265 8.94276 16.5294C8.22423 17.3375 8.26026 17.6454 9.02575 18.412C9.33479 18.721 9.63727 19.0355 9.95505 19.3348C10.3853 19.7399 10.8003 19.7606 11.2775 19.4101C11.4675 19.2703 11.6302 19.0825 11.8366 18.9777C12.0069 18.8914 12.2319 18.8412 12.4175 18.8696C12.9679 18.9547 13.1601 19.3238 13.1928 19.8655C13.254 20.8854 13.4877 21.0776 14.5163 21.0787C14.9892 21.0787 15.4631 21.0798 15.9359 21.0765C16.4798 21.0732 16.7702 20.7707 16.8652 20.2608C16.8991 20.0828 16.9122 19.8993 16.9122 19.718C16.9133 19.2769 17.1513 19.0596 17.5445 18.8892C17.9245 18.7232 18.1625 18.8554 18.4148 19.0934C18.5338 19.2048 18.6659 19.3031 18.797 19.4014C19.2796 19.7595 19.6913 19.7508 20.1172 19.3457C20.5387 18.9449 20.9493 18.531 21.3523 18.1106C21.7181 17.7273 21.7312 17.3047 21.432 16.8745C21.3184 16.7107 21.2016 16.5425 21.0552 16.4082C20.7506 16.1286 20.7604 15.8436 20.9133 15.4811C21.0673 15.1142 21.2747 14.9296 21.682 14.946C21.8961 14.9547 22.1145 14.8958 22.3285 14.8532C22.7784 14.7647 23.047 14.4797 23.0645 14.0287C23.0929 13.3735 23.0962 12.7172 23.0612 12.0642ZM22.1374 13.9665C21.3271 14.0833 20.4874 14.0866 20.0593 15.1273C19.6367 16.157 20.1249 16.7467 20.7167 17.3681C20.257 17.8191 19.8246 18.2438 19.3539 18.7058C18.762 18.1838 18.1702 17.6465 17.147 18.0691C16.1412 18.4841 15.996 19.2212 16.0025 20.1942C15.4216 20.1942 14.8811 20.2247 14.3493 20.1701C14.2357 20.1581 14.0795 19.8371 14.0719 19.6536C14.0435 18.9001 13.741 18.4109 13.0083 18.1139C12.2887 17.8223 11.6804 17.8005 11.1169 18.3869C10.9924 18.5157 10.8363 18.6129 10.6539 18.7582C10.2149 18.3061 9.8109 17.89 9.36318 17.4303C9.85786 16.7773 10.4934 16.204 10.0369 15.1535C9.60233 14.1543 8.85759 14.032 7.94249 13.9949C7.94249 13.3702 7.94249 12.7806 7.94249 12.1308C8.79316 12.0511 9.60233 12.0074 10.0326 10.9689C10.4617 9.93153 9.92775 9.35714 9.34025 8.6932C9.79343 8.2706 10.227 7.86655 10.714 7.41228C10.8811 7.54223 11.106 7.71586 11.3288 7.89167C12.2406 8.61021 13.8295 7.99759 14.0228 6.85099C14.0501 6.69047 14.0675 6.52449 14.061 6.36178C14.0479 6.02107 14.1724 5.86819 14.5382 5.89222C14.9903 5.92061 15.4456 5.89877 15.96 5.89877C16.0473 6.77237 16.0648 7.58809 17.1044 8.03363C18.1582 8.48463 18.7457 7.92115 19.4172 7.36423C19.8748 7.82397 20.2941 8.24548 20.7386 8.69102C20.1958 9.33857 19.6051 9.90532 20.0462 10.9427C20.4699 11.9386 21.1874 12.1123 22.1363 12.086C22.1374 12.7161 22.1374 13.3047 22.1374 13.9665Z" fill="white"/>
<path d="M21.0967 22.4481C17.0421 22.4382 12.9875 22.4437 8.93294 22.4459C8.82483 22.4459 8.71454 22.4601 8.60861 22.483C8.0091 22.613 7.60397 23.1306 7.61598 23.7432C7.63018 24.4759 8.20894 24.9946 9.04432 24.9968C11.0623 25.0033 13.0804 24.999 15.0984 24.999C17.0989 24.999 19.0984 25.0044 21.0989 24.9968C21.966 24.9935 22.5382 24.3885 22.465 23.587C22.406 22.9296 21.8655 22.4492 21.0967 22.4481ZM21.2857 24.0675C21.2474 24.109 21.1492 24.1068 21.0771 24.1068C18.9313 24.1057 16.7844 24.1024 14.6386 24.097C14.607 24.097 14.5753 24.0675 14.5207 24.0391C14.5207 23.8404 14.5207 23.6296 14.5207 23.3894C14.6812 23.3763 14.821 23.3544 14.9608 23.3544C16.9439 23.3522 18.9258 23.3533 20.9089 23.3533C21.0181 23.3533 21.1459 23.3228 21.2321 23.3686C21.3632 23.4385 21.5652 23.5695 21.5576 23.6613C21.5477 23.8032 21.397 23.9441 21.2857 24.0675Z" fill="white"/>
<path d="M15.0189 9.689C13.1756 9.69774 11.6697 11.2167 11.6719 13.0655C11.6741 14.912 13.1843 16.4125 15.0418 16.4135C16.9015 16.4146 18.4117 14.9175 18.4161 13.0698C18.4204 11.1981 16.896 9.68027 15.0189 9.689ZM15.0298 15.5268C13.6833 15.5214 12.5542 14.3944 12.5531 13.0556C12.552 11.6961 13.7139 10.5604 15.0844 10.5812C16.4275 10.6008 17.5578 11.7551 17.5326 13.0829C17.5086 14.4305 16.3795 15.5334 15.0298 15.5268Z" fill="white"/>
</g>
<defs>
<clipPath id="clip0_1741_288">
<rect width="16.0863" height="20" fill="white" transform="translate(7 5)"/>
</clipPath>
</defs>
</svg>
