<svg width="30" height="31" viewBox="0 0 30 31" fill="none" xmlns="http://www.w3.org/2000/svg">
<rect y="0.5" width="30" height="30" rx="12" fill="white"/>
<g clipPath="url(#clip0_3031_127)">
<path d="M23.9887 12.2047C23.9658 10.1886 22.6141 8.57725 20.6056 8.19541C20.3994 8.15723 20.2009 8.14195 19.987 8.12668H19.9718C19.9488 8.12668 19.9259 8.12668 19.903 8.11904V8.04267C19.903 7.84412 19.903 7.65319 19.903 7.46227C19.8954 6.88951 19.5746 6.50767 19.0859 6.50003C18.8644 6.4924 18.6659 6.56877 18.5131 6.71386C18.3298 6.88951 18.2306 7.1568 18.2229 7.47755C18.2229 7.67611 18.2229 7.8823 18.2229 8.07322V8.1114H11.7698V8.04267C11.7698 7.82884 11.7698 7.63028 11.7698 7.43173C11.7622 7.14153 11.6553 6.88188 11.4796 6.71386C11.3269 6.56877 11.1283 6.4924 10.8992 6.50003C10.4181 6.51531 10.0973 6.88188 10.0897 7.43173C10.0821 7.63028 10.0897 7.83648 10.0897 8.04267V8.13431C10.0515 8.13431 10.021 8.14195 9.99042 8.14195C7.69174 8.2565 6.01927 9.98243 6.004 12.2506C5.98109 15.2137 5.98109 17.8713 6.004 20.3838C6.02691 22.6977 7.78338 24.4618 10.0897 24.4771C11.7163 24.4924 13.3659 24.5 15.0078 24.5C16.6497 24.5 18.2917 24.4924 19.9107 24.4771C22.2093 24.4542 23.9582 22.713 23.9887 20.4143C24.0193 17.9247 24.0193 15.2366 23.9887 12.2047ZM22.3086 20.2234C22.3086 21.766 21.27 22.797 19.735 22.8047C16.6803 22.8123 13.4957 22.8123 10.2653 22.8047C8.72271 22.8047 7.6841 21.766 7.6841 20.231C7.67646 17.8713 7.67646 15.3817 7.6841 12.4033C7.6841 10.8378 8.70744 9.82205 10.2806 9.82205C10.8916 9.82205 11.5025 9.82205 12.1135 9.82205H15.0155H16.4588C17.5432 9.82205 18.6277 9.82205 19.7121 9.82205C21.2929 9.82205 22.3086 10.8378 22.3163 12.4033C22.3163 15.0915 22.3163 17.7262 22.3086 20.2234Z" fill="#00199F"/>
<path d="M19.8799 11.4639C19.8112 11.4563 19.7348 11.4563 19.6737 11.4563C19.6508 11.4563 19.6279 11.4563 19.605 11.4563H18.4595C15.7789 11.4563 13.0984 11.4563 10.4179 11.4563H10.3721C10.2499 11.4563 10.1048 11.4563 9.96732 11.4868C9.74585 11.5326 9.56257 11.6701 9.45565 11.8534C9.35638 12.029 9.32583 12.2352 9.38692 12.4261C9.50147 12.8003 9.78404 12.9836 10.2422 12.9836C11.3725 12.976 12.518 12.9836 13.6177 12.9836H13.8621C14.2287 12.9836 14.6029 12.9836 14.9694 12.9836C15.3513 12.9836 15.7331 12.9836 16.1226 12.9836H16.4663C17.5736 12.9836 18.7268 12.9836 19.8494 12.9836C20.3152 12.9836 20.6512 12.6782 20.6589 12.2429C20.6589 11.8228 20.3381 11.5021 19.8799 11.4639Z" fill="#00199F"/>
<path d="M18.3983 19.3299H17.9401V16.825C17.9401 15.206 16.619 13.8848 14.9999 13.8848C13.3809 13.8848 12.0598 15.206 12.0598 16.825V19.3299H11.6016C11.2961 19.3299 11.0441 19.5819 11.0441 19.8873C11.0441 20.1928 11.2961 20.4448 11.6016 20.4448H13.442C13.5489 21.2162 14.2134 21.8042 15.0076 21.8042C15.7942 21.8042 16.4662 21.2162 16.5731 20.4448H18.4136C18.7191 20.4448 18.9711 20.1928 18.9711 19.8873C18.9711 19.5819 18.7114 19.3299 18.3983 19.3299ZM14.9999 20.6892C14.8243 20.6892 14.6716 20.5899 14.5952 20.4448H15.4047C15.3283 20.5899 15.1756 20.6892 14.9999 20.6892ZM16.8175 19.3299H13.1747V16.825C13.1747 15.8169 13.9919 14.9998 14.9999 14.9998C16.008 14.9998 16.8251 15.8169 16.8251 16.825V19.3299H16.8175Z" fill="#00199F"/>
</g>
<defs>
<clipPath id="clip0_3031_127">
<rect width="18.0229" height="18" fill="white" transform="translate(5.98853 6.5)"/>
</clipPath>
</defs>
</svg>

