<svg width="31" height="31" viewBox="0 0 31 31" fill="none" xmlns="http://www.w3.org/2000/svg">
<rect x="0.835388" y="0.129028" width="30" height="30" rx="12" fill="#F0F5FF"/>
<g clipPath="url(#clip0_3031_135)">
<path d="M24.8242 11.8338C24.8013 9.81765 23.4495 8.20628 21.4411 7.82444C21.2349 7.78625 21.0363 7.77098 20.8225 7.75571H20.8072C20.7843 7.75571 20.7614 7.75571 20.7385 7.74807V7.6717C20.7385 7.47314 20.7385 7.28222 20.7385 7.0913C20.7308 6.51854 20.4101 6.1367 19.9213 6.12906C19.6999 6.12143 19.5013 6.19779 19.3486 6.34289C19.1653 6.51854 19.066 6.78583 19.0584 7.10658C19.0584 7.30513 19.0584 7.51133 19.0584 7.70225V7.74043H12.6053V7.6717C12.6053 7.45787 12.6053 7.25931 12.6053 7.06075C12.5976 6.77056 12.4907 6.5109 12.3151 6.34289C12.1623 6.19779 11.9638 6.12143 11.7347 6.12906C11.2535 6.14434 10.9328 6.5109 10.9252 7.06075C10.9175 7.25931 10.9252 7.46551 10.9252 7.6717V7.76334C10.887 7.76334 10.8564 7.77098 10.8259 7.77098C8.52719 7.88553 6.85472 9.61145 6.83945 11.8796C6.81654 14.8427 6.81654 17.5003 6.83945 20.0128C6.86236 22.3268 8.61883 24.0909 10.9252 24.1061C12.5518 24.1214 14.2013 24.1291 15.8433 24.1291C17.4852 24.1291 19.1271 24.1214 20.7461 24.1061C23.0448 24.0832 24.7936 22.342 24.8242 20.0434C24.8547 17.5538 24.8547 14.8656 24.8242 11.8338ZM23.1441 19.8524C23.1441 21.3951 22.1055 22.426 20.5705 22.4337C17.5157 22.4413 14.3312 22.4413 11.1008 22.4337C9.55816 22.4337 8.51955 21.3951 8.51955 19.8601C8.51191 17.5003 8.51191 15.0107 8.51955 12.0323C8.51955 10.4668 9.54289 9.45108 11.1161 9.45108C11.727 9.45108 12.338 9.45108 12.9489 9.45108H15.8509H17.2943C18.3787 9.45108 19.4631 9.45108 20.5476 9.45108C22.1284 9.45108 23.1441 10.4668 23.1517 12.0323C23.1517 14.7205 23.1517 17.3552 23.1441 19.8524Z" fill="#00199F"/>
<path d="M20.7154 11.093C20.6466 11.0853 20.5703 11.0853 20.5092 11.0853C20.4863 11.0853 20.4634 11.0853 20.4404 11.0853H19.2949C16.6144 11.0853 13.9339 11.0853 11.2533 11.0853H11.2075C11.0853 11.0853 10.9402 11.0853 10.8028 11.1159C10.5813 11.1617 10.398 11.2992 10.2911 11.4824C10.1918 11.6581 10.1613 11.8643 10.2224 12.0552C10.3369 12.4294 10.6195 12.6127 11.0777 12.6127C12.2079 12.6051 13.3535 12.6127 14.4532 12.6127H14.6976C15.0641 12.6127 15.4383 12.6127 15.8049 12.6127C16.1867 12.6127 16.5686 12.6127 16.9581 12.6127H17.3017C18.409 12.6127 19.5622 12.6127 20.6848 12.6127C21.1507 12.6127 21.4867 12.3072 21.4943 11.8719C21.4943 11.4519 21.1736 11.1311 20.7154 11.093Z" fill="#00199F"/>
<path d="M19.2338 18.9589H18.7756V16.454C18.7756 14.835 17.4544 13.5138 15.8354 13.5138C14.2164 13.5138 12.8952 14.835 12.8952 16.454V18.9589H12.437C12.1315 18.9589 11.8795 19.2109 11.8795 19.5163C11.8795 19.8218 12.1315 20.0738 12.437 20.0738H14.2775C14.3844 20.8451 15.0488 21.4332 15.843 21.4332C16.6296 21.4332 17.3017 20.8451 17.4086 20.0738H19.2491C19.5545 20.0738 19.8065 19.8218 19.8065 19.5163C19.8065 19.2109 19.5469 18.9589 19.2338 18.9589ZM15.8354 20.3182C15.6597 20.3182 15.507 20.2189 15.4306 20.0738H16.2401C16.1638 20.2189 16.011 20.3182 15.8354 20.3182ZM17.653 18.9589H14.0102V16.454C14.0102 15.4459 14.8273 14.6288 15.8354 14.6288C16.8435 14.6288 17.6606 15.4459 17.6606 16.454V18.9589H17.653Z" fill="#00199F"/>
</g>
<defs>
<clipPath id="clip0_3031_135">
<rect width="18.0229" height="18" fill="white" transform="translate(6.82397 6.12903)"/>
</clipPath>
</defs>
</svg>
