<svg width="32" height="33" viewBox="0 0 32 33" fill="none" xmlns="http://www.w3.org/2000/svg">
<rect y="0.0431519" width="32" height="32" rx="3" fill="white"/>
<g clipPath="url(#clip0_2646_1614)">
<path d="M25.352 23.4696C23.9197 22.0303 22.5118 20.5666 21.0307 19.1779C20.4173 18.6029 20.2797 18.1986 20.7083 17.3849C22.815 13.3824 21.008 8.4321 16.8749 6.66872C12.7313 4.90012 7.92561 7.01722 6.43232 11.2671C4.95122 15.4873 7.33492 20.1083 11.651 21.3316C13.9876 21.9954 16.1814 21.5894 18.2933 20.2495C20.0497 22.0094 21.7451 23.7152 23.4492 25.4142C24.1898 26.1512 24.9948 26.2383 25.5855 25.6668C26.218 25.0604 26.1361 24.2572 25.352 23.4696ZM13.735 19.8383C10.4365 19.793 7.78099 17.0747 7.81235 13.7797C7.84371 10.4882 10.5602 7.83269 13.8639 7.86057C17.1537 7.88845 19.8214 10.6137 19.7848 13.9087C19.75 17.2002 17.0091 19.8853 13.735 19.8383Z" fill="black"/>
</g>
<defs>
<clipPath id="clip0_2646_1614">
<rect width="20.0139" height="20" fill="white" transform="translate(5.99316 6.04315)"/>
</clipPath>
</defs>
</svg>
