<svg width="28" height="40" viewBox="0 0 28 40" fill="none" xmlns="http://www.w3.org/2000/svg">
<path fill-rule="evenodd" clip-rule="evenodd" d="M7.06324 1.87354C11.433 -0.665451 16.8041 -0.621074 21.1328 1.98979C25.4189 4.65383 28.0239 9.40835 27.9997 14.5229C27.8999 19.6039 25.1066 24.38 21.6149 28.0722C19.5997 30.2128 17.3452 32.1057 14.8977 33.7121C14.6456 33.8578 14.3695 33.9554 14.083 34C13.8072 33.9883 13.5386 33.9068 13.3015 33.7629C9.56485 31.3491 6.28667 28.2681 3.62466 24.6679C1.39717 21.6627 0.131669 18.032 2.3272e-06 14.2688C-0.00289167 9.14449 2.69353 4.41254 7.06324 1.87354ZM9.58835 16.3896C10.3234 18.2017 12.0584 19.3837 13.9832 19.3837C15.2442 19.3927 16.4564 18.8876 17.3496 17.9809C18.2429 17.0742 18.743 15.8413 18.7385 14.5568C18.7452 12.5961 17.5909 10.8246 15.8145 10.0695C14.0382 9.31446 11.9901 9.72469 10.6267 11.1087C9.2632 12.4927 8.8533 14.5774 9.58835 16.3896Z" fill="#094EFF"/>

<ellipse cx="13.875" cy="13.125" rx="10.875" ry="10.875" fill="white"/>
<path opacity="0.4" d="M21.2482 9.33182C20.934 9.13385 20.5477 9.11634 20.2185 9.28385L19.107 9.84502C18.696 10.0521 18.4409 10.4709 18.4409 10.9369V15.312C18.4409 15.778 18.696 16.196 19.107 16.4047L20.2177 16.9651C20.3685 17.0427 20.5297 17.08 20.691 17.08C20.8845 17.08 21.0765 17.0252 21.2482 16.9179C21.5625 16.7206 21.75 16.3788 21.75 16.0042V10.2463C21.75 9.87167 21.5625 9.52979 21.2482 9.33182Z" fill="#094EFF"/>
<path d="M14.1788 18.75H9.83478C8.01826 18.75 6.75 17.4975 6.75 15.7043V10.5457C6.75 8.75178 8.01826 7.5 9.83478 7.5H14.1788C15.9953 7.5 17.2636 8.75178 17.2636 10.5457V15.7043C17.2636 17.4975 15.9953 18.75 14.1788 18.75Z" fill="#094EFF"/>
</svg>
