<svg width="22" height="22" viewBox="0 0 24 24" fill="none" xmlns="http://www.w3.org/2000/svg">
<path fill-rule="evenodd" clip-rule="evenodd" d="M7.75 19H5.61538C5.46154 19 5.32052 18.9359 5.1923 18.8077C5.0641 18.6795 5 18.5385 5 18.3846V16.25H7.75V19ZM11.5 19H8.75V16.25H11.5V19ZM15.25 19H12.5V16.25H15.25V19ZM18.3846 19H16.25V16.25H19V18.3846C19 18.5385 18.9359 18.6795 18.8077 18.8077C18.6795 18.9359 18.5385 19 18.3846 19ZM19 7.75H16.25V5H18.3846C18.5385 5 18.6795 5.0641 18.8077 5.1923C18.9359 5.32052 19 5.46154 19 5.61537V7.75ZM19 11.5H16.25V8.75H19V11.5ZM19 15.25H16.25V12.5H19V15.25ZM4.4625 19.5375C4.77083 19.8458 5.15513 20 5.61538 20H18.3846C18.8449 20 19.2292 19.8458 19.5375 19.5375C19.8458 19.2292 20 18.8449 20 18.3846V5.61537C20 5.15512 19.8458 4.77083 19.5375 4.4625C19.2292 4.15417 18.8449 4 18.3846 4H5.61538C5.15513 4 4.77083 4.15417 4.4625 4.4625C4.15417 4.77083 4 5.15512 4 5.61537V18.3846C4 18.8449 4.15417 19.2292 4.4625 19.5375ZM5.61538 5H7.75H12.5H15.25V8.75V12.5V15.25H11.5H7.75H5V11.5V7.75V5.61537C5 5.46154 5.0641 5.32052 5.1923 5.1923C5.32052 5.0641 5.46154 5 5.61538 5Z" fill="#EBF1F5"/>
</svg>
