<svg width="22" height="22" viewBox="0 0 22 22" fill="none" xmlns="http://www.w3.org/2000/svg">
<path d="M4.23076 17.4167C3.80886 17.4167 3.4566 17.2753 3.17396 16.9927C2.89132 16.7101 2.75 16.3578 2.75 15.9359V6.06409C2.75 5.64219 2.89132 5.28993 3.17396 5.00729C3.4566 4.72465 3.80886 4.58333 4.23076 4.58333H17.7692C18.1911 4.58333 18.5434 4.72465 18.826 5.00729C19.1087 5.28993 19.25 5.64219 19.25 6.06409V15.9359C19.25 16.3578 19.1087 16.7101 18.826 16.9927C18.5434 17.2753 18.1911 17.4167 17.7692 17.4167H4.23076ZM4.23076 16.5H17.7692C17.9103 16.5 18.0395 16.4412 18.1571 16.3237C18.2746 16.2062 18.3333 16.0769 18.3333 15.9359V6.06409C18.3333 5.92307 18.2746 5.7938 18.1571 5.67627C18.0395 5.55875 17.9103 5.49999 17.7692 5.49999H4.23076C4.08975 5.49999 3.96047 5.55875 3.84294 5.67627C3.72543 5.7938 3.66667 5.92307 3.66667 6.06409V15.9359C3.66667 16.0769 3.72543 16.2062 3.84294 16.3237C3.96047 16.4412 4.08975 16.5 4.23076 16.5Z" fill="#EBF1F5"/>
</svg>
