<svg width="162" height="35" viewBox="0 0 162 35" fill="none" xmlns="http://www.w3.org/2000/svg">
<path fill-rule="evenodd" clip-rule="evenodd" d="M151.04 12.9292C150.848 12.4303 150.691 12.0312 150.57 11.7318C150.448 11.4325 150.299 11.1546 150.113 10.8909C149.928 10.6272 149.7 10.4205 149.408 10.2494C149.116 10.0855 148.752 10 148.317 10C147.883 10 147.526 10.0855 147.234 10.2494C146.942 10.4134 146.707 10.6343 146.529 10.898C146.35 11.1688 146.179 11.5038 146.023 11.9029C145.917 12.1772 145.821 12.4223 145.734 12.6425L145.731 12.6502C145.691 12.7532 145.652 12.8508 145.616 12.9434L141.661 22.9853C141.497 23.3844 141.383 23.698 141.312 23.926C141.24 24.1541 141.205 24.3679 141.205 24.5817C141.205 24.9452 141.354 25.273 141.661 25.5652C141.96 25.8503 142.309 26 142.701 26C143.165 26 143.5 25.8646 143.706 25.5937C143.913 25.3229 144.155 24.8027 144.448 24.0258L145.189 22.0445H151.475L152.216 23.9831C152.316 24.2254 152.43 24.4962 152.572 24.8098C152.715 25.1234 152.836 25.3514 152.957 25.5082C153.078 25.6579 153.228 25.779 153.399 25.8646C153.577 25.9501 153.784 25.9929 154.033 25.9929C154.454 25.9929 154.817 25.8432 155.117 25.5439C155.416 25.2445 155.566 24.9167 155.566 24.5603C155.566 24.204 155.409 23.6623 155.088 22.9069L151.047 12.9292H151.04ZM146.008 19.6926L148.296 13.314L150.627 19.6926H146.008ZM63.8985 19.8708C64.0909 19.6142 64.4117 19.4859 64.8464 19.4859L64.8606 19.4788C65.2384 19.4788 65.5591 19.6142 65.8228 19.8708C66.0865 20.1274 66.2219 20.4552 66.2219 20.8401C66.2219 21.3318 66.1007 21.8592 65.8584 22.4365C65.6161 23.0138 65.2313 23.5768 64.711 24.1256C64.1907 24.6815 63.5208 25.1305 62.7154 25.4726C61.903 25.8218 60.9622 25.9928 59.886 25.9928C59.0736 25.9928 58.3324 25.9144 57.6624 25.7577C56.9996 25.608 56.3867 25.3657 55.8451 25.0378C55.2963 24.71 54.7974 24.2824 54.3413 23.7479C53.9279 23.2632 53.5787 22.7145 53.2936 22.1158C53.0086 21.5171 52.7876 20.8757 52.6451 20.1915C52.5025 19.5073 52.4313 18.7804 52.4313 18.0178C52.4313 16.7706 52.6094 15.6588 52.9729 14.6753C53.3364 13.6917 53.8495 12.8508 54.5266 12.1523C55.2036 11.4539 55.9947 10.9194 56.8999 10.5559C57.805 10.1924 58.7742 10.0071 59.8005 10.0071C61.0477 10.0071 62.1667 10.2566 63.1431 10.7554C64.1195 11.2543 64.8678 11.8744 65.388 12.6085C65.9083 13.3425 66.1649 14.0338 66.1649 14.6895C66.1649 15.0459 66.0437 15.3666 65.7872 15.6374C65.5306 15.9154 65.2241 16.0508 64.8678 16.0508C64.4615 16.0508 64.1622 15.9581 63.9627 15.7657C63.7631 15.5733 63.5422 15.2454 63.2927 14.7822C62.8865 14.0196 62.4019 13.4423 61.8531 13.0646C61.3043 12.6868 60.6201 12.4944 59.8148 12.4944C58.5319 12.4944 57.5056 12.9862 56.7431 13.9626C55.9805 14.939 55.5956 16.3216 55.5956 18.1247C55.5956 19.3292 55.7667 20.3269 56.1016 21.1251C56.4366 21.9234 56.9141 22.522 57.5342 22.914C58.1542 23.306 58.8812 23.5055 59.7079 23.5055C60.6059 23.5055 61.3685 23.2846 61.9885 22.8356C62.6157 22.3866 63.086 21.7309 63.3996 20.8686C63.535 20.4623 63.699 20.1274 63.8985 19.8708ZM50.1936 23.6837C50.4858 23.6196 50.7067 23.591 50.8706 23.591L50.8635 23.5839C51.0987 23.5839 51.3054 23.6766 51.4907 23.8619C51.676 24.0472 51.7686 24.2824 51.7686 24.5532C51.7686 25.0164 51.512 25.3728 51.006 25.6151C50.5 25.8645 49.7731 25.9857 48.8252 25.9857C47.9272 25.9857 47.243 25.8289 46.7798 25.5296C46.3165 25.2302 46.01 24.8098 45.8675 24.2752C45.725 23.7407 45.6537 23.028 45.6537 22.1372V16.6138H45.276C44.8626 16.6138 44.549 16.5211 44.3281 16.3216C44.1071 16.122 44.0002 15.8726 44.0002 15.5732C44.0002 15.2739 44.1143 15.0245 44.3423 14.832C44.5704 14.6396 44.9054 14.5398 45.3401 14.5398H45.6537V12.808C45.6537 12.3447 45.6679 11.9813 45.6893 11.7176C45.7178 11.4467 45.782 11.2258 45.896 11.0334C46.01 10.841 46.1668 10.677 46.3806 10.5559C46.5873 10.4347 46.8296 10.3706 47.0862 10.3706C47.4497 10.3706 47.7847 10.5131 48.0769 10.7839C48.2764 10.9692 48.4047 11.1902 48.4546 11.4539C48.5045 11.7176 48.533 12.0953 48.533 12.5799V14.5398H49.5878C49.994 14.5398 50.3076 14.6396 50.5214 14.832C50.7352 15.0245 50.8421 15.2739 50.8421 15.5732C50.8421 15.9581 50.6924 16.2289 50.386 16.3857C50.0795 16.5425 49.6448 16.6209 49.0746 16.6209H48.5401V21.9162C48.5401 22.3652 48.5615 22.7144 48.59 22.9568C48.6185 23.1991 48.704 23.3986 48.8394 23.5483C48.9749 23.698 49.2029 23.7763 49.5094 23.7763C49.6733 23.7763 49.9085 23.7407 50.1936 23.6837ZM78.723 21.1329V21.1326C78.7264 20.8842 78.7297 20.647 78.7297 20.4196V18.702C78.7297 17.633 78.58 16.7777 78.2807 16.1292C77.9813 15.4806 77.4682 15.0103 76.7484 14.7109C76.0285 14.4116 75.0308 14.2619 73.7622 14.2619C72.629 14.2619 71.6811 14.4187 70.9257 14.7252C70.1631 15.0316 69.6072 15.4307 69.2508 15.9083C68.8945 16.3858 68.7163 16.8775 68.7163 17.3835C68.7163 17.7042 68.8375 17.9751 69.0727 18.1817C69.3078 18.3884 69.5858 18.4953 69.9136 18.4953C70.27 18.4953 70.5052 18.4312 70.6121 18.3029C70.719 18.1746 70.9043 17.9038 71.168 17.4976C71.4317 17.0913 71.7453 16.7849 72.1159 16.5782C72.4865 16.3715 73.0352 16.2717 73.7693 16.2717C74.6174 16.2717 75.1804 16.4499 75.4513 16.8062C75.7221 17.1626 75.8718 17.7185 75.9074 18.4811C75.3016 18.6593 74.7386 18.8089 74.2254 18.9301C73.7123 19.0512 73.0851 19.1866 72.3653 19.3363C71.6384 19.486 71.1894 19.5786 71.0041 19.6214C70.1346 19.8138 69.4433 20.1844 68.9444 20.7403C68.4455 21.2962 68.196 21.9662 68.196 22.7572C68.196 23.3417 68.3457 23.8833 68.6522 24.3822C68.9515 24.8811 69.3862 25.2731 69.9421 25.5653C70.498 25.8575 71.1466 26 71.8878 26C72.6931 26 73.4272 25.8646 74.0758 25.5938C74.7243 25.3229 75.4014 24.9167 76.0927 24.3751C76.4134 24.9024 76.7199 25.3016 77.0121 25.5795C77.2971 25.8575 77.5893 25.9929 77.8887 25.9929C78.2379 25.9929 78.5515 25.8717 78.8294 25.6294C79.1074 25.3871 79.2428 25.1163 79.2428 24.8241C79.2428 24.653 79.1502 24.2753 78.972 23.6909C78.7938 23.1065 78.7011 22.5363 78.7011 21.9947H78.7154C78.7154 21.6933 78.7193 21.4074 78.723 21.1351V21.1347V21.1343V21.1339V21.1336V21.1332V21.1329ZM75.9074 20.612C75.9074 21.6098 75.7791 22.3296 75.5154 22.7644C75.2874 23.1564 74.9381 23.4771 74.4535 23.7265C73.9689 23.9759 73.4486 24.1042 72.8784 24.1042C72.3439 24.1042 71.9092 23.9546 71.5813 23.6481C71.2535 23.3416 71.0825 22.971 71.0825 22.5363C71.0825 22.1016 71.225 21.788 71.5029 21.5528C71.7809 21.3176 72.0802 21.1608 72.3867 21.0753C72.6931 20.9969 73.2562 20.8686 74.0615 20.6976C74.8669 20.5265 75.4798 20.3626 75.9003 20.2058V20.6192L75.9074 20.612ZM94.2883 14.3118C95.0794 14.3118 95.7565 14.4686 96.3266 14.7751L96.3053 14.7608C96.8754 15.0744 97.303 15.5163 97.581 16.0935C97.8304 16.6138 97.9516 17.4334 97.9516 18.5523V24.1755C97.9516 24.7813 97.809 25.2374 97.5382 25.5367C97.2674 25.8432 96.8897 25.9929 96.4549 25.9929C96.0202 25.9929 95.6638 25.8432 95.3859 25.5367C95.1079 25.2303 94.9725 24.7813 94.9725 24.1826V19.3434C94.9725 18.7234 94.944 18.2245 94.8941 17.8539C94.8442 17.4762 94.7017 17.1626 94.4665 16.9131C94.2313 16.6637 93.8821 16.5354 93.4117 16.5354C93.0269 16.5354 92.6705 16.6423 92.3284 16.8704C91.9863 17.0913 91.7226 17.3978 91.5302 17.7755C91.3235 18.2601 91.2166 19.1154 91.2166 20.3483V24.1755C91.2166 24.7813 91.0741 25.2374 90.8033 25.5367C90.5324 25.8432 90.1547 25.9929 89.72 25.9929C89.2852 25.9929 88.9289 25.8361 88.6581 25.5367C88.3872 25.2374 88.2518 24.7813 88.2518 24.1755V19.5857C88.2518 18.8588 88.2304 18.2958 88.1805 17.8967C88.1307 17.4976 88.0024 17.1697 87.7814 16.9131C87.5605 16.6566 87.2184 16.5283 86.748 16.5283C85.8073 16.5283 85.1872 16.849 84.8879 17.4976C84.5886 18.1461 84.4389 19.0726 84.4389 20.2842V24.1755C84.4389 24.7742 84.3035 25.2232 84.0327 25.5296C83.7618 25.8361 83.3984 25.9857 82.9636 25.9857C82.5289 25.9857 82.1725 25.8361 81.8946 25.5296C81.6166 25.2232 81.4812 24.7742 81.4812 24.1755V15.9368C81.4812 15.3951 81.6095 14.9817 81.8589 14.7038C82.1084 14.4258 82.4505 14.2833 82.8425 14.2833C83.2345 14.2833 83.5623 14.4187 83.826 14.6824C84.0897 14.9461 84.2251 15.3096 84.2251 15.7728V16.0437C84.724 15.445 85.2585 15.0031 85.8287 14.7252C86.3988 14.4472 86.9975 14.3047 87.7244 14.3047C88.4514 14.3047 89.0714 14.4544 89.5917 14.7394C90.1119 15.0316 90.5467 15.4664 90.8817 16.0508C91.3663 15.4593 91.8866 15.0245 92.4425 14.7394C92.9984 14.4544 93.6113 14.3118 94.2883 14.3118ZM110.559 20.5265C110.972 20.3127 111.179 19.8423 111.179 19.1154C111.179 18.3385 110.979 17.5688 110.58 16.8134C110.181 16.0579 109.575 15.445 108.77 14.9746C107.965 14.4971 107.002 14.2619 105.876 14.2619C105.014 14.2619 104.223 14.3973 103.517 14.6753C102.805 14.9532 102.213 15.3524 101.721 15.8726C101.237 16.3929 100.866 17.0201 100.617 17.747C100.36 18.4739 100.239 19.265 100.239 20.1131C100.239 21.9234 100.752 23.3488 101.778 24.4036C102.805 25.4584 104.244 25.9857 106.09 25.9857C106.896 25.9857 107.615 25.8788 108.235 25.6722C108.855 25.4583 109.376 25.1947 109.789 24.8739C110.202 24.5532 110.509 24.2183 110.708 23.869C110.908 23.5198 111.015 23.2205 111.015 22.9568C111.015 22.6646 110.922 22.4365 110.744 22.2726C110.559 22.1087 110.324 22.0303 110.024 22.0303C109.753 22.0303 109.54 22.0944 109.39 22.2227C109.034 22.5577 108.741 22.8285 108.513 23.0209C108.285 23.2205 108.043 23.4058 107.772 23.5768C107.501 23.7479 107.231 23.8762 106.945 23.9546C106.66 24.033 106.347 24.0757 106.005 24.0757C105.492 24.0757 105.021 23.9474 104.594 23.698C104.166 23.4486 103.824 23.0708 103.567 22.5719C103.311 22.0731 103.182 21.4958 103.175 20.8401H108.806C109.561 20.8401 110.138 20.7332 110.559 20.5194V20.5265ZM103.175 19.2152C103.275 18.2459 103.553 17.5118 104.016 17.0129C104.48 16.514 105.064 16.2717 105.784 16.2717C106.539 16.2717 107.145 16.514 107.601 17.0058C108.064 17.4976 108.328 18.2316 108.399 19.2152H103.182H103.175ZM118.876 14.2833C119.482 14.2833 120.066 14.4401 120.637 14.7394L120.629 14.7323C121.2 15.0388 121.485 15.4379 121.485 15.9368C121.485 16.286 121.364 16.5782 121.121 16.8062C120.879 17.0343 120.615 17.1483 120.337 17.1483C120.23 17.1483 119.981 17.0842 119.575 16.9559C119.168 16.8276 118.812 16.7635 118.506 16.7635C118.085 16.7635 117.743 16.8775 117.472 17.0984C117.209 17.3194 117.002 17.6472 116.852 18.082C116.703 18.5167 116.603 19.037 116.546 19.6356C116.489 20.2343 116.46 20.9684 116.46 21.8307V24.2396C116.46 24.824 116.318 25.2659 116.047 25.551C115.776 25.8361 115.427 25.9857 115.006 25.9857C114.586 25.9857 114.244 25.8361 113.98 25.5439C113.716 25.2517 113.581 24.8169 113.581 24.2396V16.2218C113.581 14.9319 114.051 14.2833 114.985 14.2833C115.462 14.2833 115.805 14.4401 116.018 14.7394C116.232 15.0388 116.346 15.4878 116.368 16.0793C116.717 15.4878 117.066 15.0388 117.429 14.7394C117.786 14.433 118.27 14.2833 118.876 14.2833ZM132.418 21.9947C132.418 21.6923 132.421 21.4056 132.425 21.1326C132.429 20.8842 132.432 20.647 132.432 20.4196V18.702C132.432 17.633 132.282 16.7777 131.983 16.1292C131.683 15.4806 131.17 15.0103 130.45 14.7109C129.731 14.4116 128.733 14.2619 127.464 14.2619C126.331 14.2619 125.383 14.4187 124.628 14.7252C123.865 15.0316 123.309 15.4307 122.953 15.9083C122.597 16.3858 122.418 16.8775 122.418 17.3835C122.418 17.7042 122.54 17.9751 122.775 18.1817C123.01 18.3884 123.288 18.4953 123.616 18.4953C123.972 18.4953 124.207 18.4312 124.314 18.3029C124.421 18.1746 124.606 17.9038 124.87 17.4976C125.134 17.0913 125.447 16.7849 125.818 16.5782C126.189 16.3715 126.737 16.2717 127.471 16.2717C128.32 16.2717 128.883 16.4499 129.153 16.8062C129.424 17.1626 129.574 17.7185 129.609 18.4811C129.004 18.6593 128.441 18.8089 127.928 18.9301C127.414 19.0512 126.787 19.1866 126.067 19.3363C125.34 19.486 124.891 19.5786 124.706 19.6214C123.837 19.8138 123.145 20.1844 122.646 20.7403C122.148 21.2962 121.898 21.9662 121.898 22.7572C121.898 23.3417 122.048 23.8833 122.354 24.3822C122.654 24.8811 123.088 25.2731 123.644 25.5653C124.2 25.8575 124.849 26 125.59 26C126.395 26 127.129 25.8646 127.778 25.5938C128.426 25.3229 129.103 24.9167 129.795 24.3751C130.115 24.9024 130.422 25.3016 130.714 25.5795C130.999 25.8575 131.291 25.9929 131.591 25.9929C131.94 25.9929 132.254 25.8717 132.532 25.6294C132.809 25.3871 132.945 25.1163 132.945 24.8241C132.945 24.653 132.852 24.2753 132.674 23.6909C132.496 23.1065 132.403 22.5363 132.403 21.9947H132.418ZM129.609 20.612C129.609 21.6098 129.481 22.3296 129.217 22.7644C128.989 23.1564 128.64 23.4771 128.156 23.7265C127.671 23.9759 127.151 24.1042 126.581 24.1042C126.046 24.1042 125.611 23.9546 125.283 23.6481C124.956 23.3416 124.785 22.971 124.785 22.5363C124.785 22.1016 124.927 21.788 125.205 21.5528C125.483 21.3176 125.782 21.1608 126.089 21.0753C126.395 20.9969 126.958 20.8686 127.764 20.6976C128.569 20.5265 129.182 20.3626 129.602 20.2058V20.6192L129.609 20.612ZM136.116 23.2846C136.422 22.9782 136.793 22.8214 137.234 22.8214C137.676 22.8214 138.054 22.971 138.368 23.2775C138.681 23.584 138.838 23.9546 138.838 24.3893C138.838 24.8882 138.681 25.2802 138.368 25.5652C138.054 25.8503 137.698 25.9929 137.263 25.9929C136.828 25.9929 136.451 25.8503 136.137 25.5724C135.816 25.2873 135.659 24.8953 135.659 24.3893C135.659 23.9617 135.816 23.5911 136.116 23.2846ZM159.528 10.0071C160.006 10.0071 160.383 10.1639 160.675 10.4775L160.668 10.4846C160.961 10.7911 161.103 11.2686 161.103 11.91V24.09C161.103 24.7314 160.961 25.2089 160.668 25.5225C160.376 25.8432 159.97 26 159.521 26C159.072 26 158.701 25.8432 158.409 25.5225C158.117 25.2018 157.974 24.7243 157.974 24.09V11.91C157.974 11.2757 158.124 10.7982 158.409 10.4846C158.701 10.1639 159.05 10.0071 159.528 10.0071Z" fill="#E44B09"/>
<circle cx="17.5" cy="17.5" r="17.5" fill="#00199F"/>
<g clip-path="url(#clip0_125_480)">
<g filter="url(#filter0_d_125_480)">
<path d="M19.099 8.97C16.29 7.17317 12.2422 9.42807 10.06 14.0067C9.92429 14.2916 9.62983 14.9375 9.5152 15.2255C9.5152 15.2255 10.4017 14.7925 10.4386 14.7152C10.4859 14.6161 10.7025 14.1612 10.7509 14.0652C12.7638 10.0928 16.2437 8.1175 18.5384 9.58459C20.8879 11.0872 20.9825 15.6669 18.9959 19.8323C17.0093 23.9988 13.6955 26.1755 11.3461 24.6729C10.3849 24.0573 9.75708 22.9136 9.48365 21.4946C9.24492 21.5259 9.0125 21.4998 8.84424 21.4674C9.14501 23.2663 9.93902 24.747 11.1958 25.5505C14.0047 27.3473 18.0526 25.0924 20.2348 20.5137C22.417 15.9361 21.909 10.7668 19.1 8.97H19.099Z" fill="white"/>
</g>
<g filter="url(#filter1_d_125_480)">
<path d="M9.27965 17.4887C8.25954 17.4887 7.43188 18.3005 7.43188 19.3012C7.43188 20.3019 8.25954 21.1137 9.27965 21.1137C10.2998 21.1137 11.1274 20.3019 11.1274 19.3012C11.1274 18.3005 10.3008 17.4887 9.27965 17.4887Z" fill="white"/>
<path d="M9.27968 17.0515C10.5417 17.0515 11.5681 18.0606 11.5681 19.3012C11.5681 19.7134 11.4535 20.0984 11.2557 20.4302H16.8969C15.0491 23.4938 12.8069 24.1136 11.4661 23.403C10.3398 22.8062 10.0074 21.7335 9.95064 21.5144C10.0474 21.9286 10.1578 22.322 10.2966 22.682C10.7993 23.8569 11.7143 24.7115 12.971 24.7115C15.3541 24.7115 17.5163 21.914 18.5974 19.6456C20.5009 15.6544 20.4147 11.3052 18.2998 9.95189C16.4636 8.77801 13.7282 10.1794 11.8289 13.0791C15.1395 8.59749 18.2977 9.48651 18.8719 12.5261C18.9392 12.885 18.9739 13.2722 18.9791 13.6812C18.1662 13.5675 17.4321 13.4996 16.7749 13.461C14.1888 13.3097 14.1888 13.7261 10.3608 15.885C5.45794 15.933 3.77844 17.8759 3.77844 17.8759V18.3746C4.21383 18.2035 5.10879 17.9145 6.19621 17.9145L5.39064 19.4828C5.39064 19.4828 4.33162 19.6153 3.77844 19.7176V20.4302H7.30256C7.1059 20.0974 6.99021 19.7123 6.99021 19.3012C6.99021 18.0606 8.01663 17.0515 9.27863 17.0515H9.27968ZM15.2573 14.2499C15.8799 14.1236 17.2471 14.1789 18.956 14.4314C18.9181 14.9584 18.833 15.5104 18.7057 16.0759C17.0893 16.0989 15.6054 16.0467 14.1731 16.0696C14.2782 15.8954 14.3361 15.6773 14.1405 15.5469C13.8838 15.3778 13.4369 15.6523 13.1004 16.1051C12.5956 16.1312 12.0939 16.1709 11.5923 16.2324C11.5923 16.2324 14.0426 14.4961 15.2563 14.2499H15.2573Z" fill="white"/>
</g>
<g filter="url(#filter2_d_125_480)">
<path fill-rule="evenodd" clip-rule="evenodd" d="M25.3253 19.8572L25.3253 19.8572C25.4289 19.882 25.5307 19.9065 25.6288 19.9335C25.959 19.8659 26.2871 19.7992 26.6135 19.7328C27.7264 19.5066 28.8189 19.2845 29.9069 19.0424C30.0689 19.007 30.2698 18.8024 30.3013 18.6459C30.3234 18.5395 30.1078 18.3193 29.9532 18.2546C27.7867 17.3387 25.6167 16.4306 23.4464 15.5224L23.446 15.5223L22.8366 15.2672C22.8114 16.3869 22.6284 17.5409 22.2971 18.6804L22.6802 18.8408L22.6803 18.8408C23.3327 19.1141 23.9848 19.3872 24.6392 19.656L24.6402 19.6549C24.8621 19.746 25.0978 19.8026 25.3253 19.8572ZM29.8428 20.2122C29.5662 20.8779 29.3222 21.4674 29.0593 22.1029C29.2561 22.1853 29.4358 22.2604 29.6138 22.3348L29.6138 22.3348C29.8144 22.4186 30.013 22.5016 30.2319 22.5933L30.4127 22.1608L30.4129 22.1602C30.6129 21.6817 30.8081 21.2144 31.0228 20.7026C30.7175 20.5755 30.4435 20.4617 30.153 20.341L30.152 20.3406L29.8428 20.2122ZM23.923 19.9659C24.9568 20.4511 25.9464 20.5043 27.017 20.2195L27.018 20.2205C27.4961 20.0926 27.9823 19.9962 28.5186 19.89C28.774 19.8394 29.0407 19.7865 29.3233 19.7269L29.2452 19.9115C28.8438 20.8597 28.4843 21.7091 28.096 22.6257C26.7523 22.0672 25.4499 21.5264 24.1349 20.9803C23.6931 20.7968 23.2497 20.6127 22.803 20.4271C22.762 20.4104 22.132 21.6563 22.0931 21.7878C22.022 22.0282 22.0445 22.2733 22.0669 22.5186C22.0867 22.7343 22.1064 22.9502 22.0626 23.163C21.9827 23.5533 21.705 23.9028 21.3412 24.0708C21.0299 24.2138 20.6618 24.2242 20.341 24.1074C20.1903 24.0527 20.0523 23.972 19.9145 23.8914C19.8052 23.8275 19.696 23.7637 19.5807 23.7129C19.8057 23.4594 20.0245 23.1881 20.238 22.9001C20.2948 23.1933 20.5556 23.4155 20.8679 23.4155C21.2234 23.4155 21.5105 23.1307 21.5105 22.778C21.5105 22.4253 21.2223 22.1405 20.8679 22.1405C20.8269 22.1405 20.7869 22.1446 20.748 22.1519C21.0309 21.7053 21.2981 21.2243 21.5452 20.7067C21.7734 20.2059 21.9743 19.6956 22.1436 19.1802C22.742 19.4316 23.3362 19.6904 23.923 19.9659Z" fill="url(#paint0_linear_125_480)"/>
</g>
<g filter="url(#filter3_d_125_480)">
<path fill-rule="evenodd" clip-rule="evenodd" d="M21.9143 10.8294C22.4096 11.7675 22.6841 12.8454 22.7882 13.9066V13.9055C22.8313 14.35 22.8471 14.805 22.8366 15.2662C22.7025 15.2104 22.5687 15.1543 22.4348 15.0982C22.301 15.0421 22.1672 14.986 22.0331 14.9302C22.0394 14.5034 22.0236 14.0808 21.9826 13.6666C21.8007 11.8082 21.0982 9.89346 19.5964 8.78114C19.853 8.87505 20.1023 8.99504 20.3431 9.14634C20.9867 9.5512 21.5104 10.1293 21.9143 10.8294ZM21.3632 18.8578C21.2718 19.1423 21.1731 19.4248 21.0628 19.7052L21.0624 19.705C20.932 20.041 20.789 20.3739 20.6334 20.7015C20.4083 21.1742 20.1622 21.625 19.8993 22.0518C20.6258 21.6846 21.1831 20.9868 21.6037 19.9324L21.604 19.9325C21.1844 20.9874 20.626 21.6855 19.8993 22.0528C19.5596 22.6037 19.1915 23.1119 18.8013 23.5762L18.8005 23.5762L18.8014 23.5752L18.8003 23.5762L18.8005 23.5762C18.3738 24.0829 17.9208 24.5354 17.4489 24.9254L17.4486 24.9265C17.1767 25.1515 16.8996 25.3556 16.6182 25.5379L16.616 25.5379C15.9524 25.9668 15.2646 26.2767 14.5726 26.4489C16.1333 26.4082 17.9853 25.5066 19.5785 23.7129C19.5112 23.6837 19.4429 23.6566 19.3703 23.6389C19.3196 23.6262 19.2688 23.6159 19.2178 23.6076C19.2691 23.6158 19.3203 23.6261 19.3713 23.6389C19.4439 23.6566 19.5133 23.6837 19.5796 23.7129C19.8046 23.4604 20.0234 23.1891 20.2369 22.9001C20.2295 22.8604 20.2253 22.8197 20.2253 22.778C20.2253 22.4671 20.4504 22.2083 20.7469 22.153C21.0298 21.7064 21.2969 21.2253 21.5441 20.7078C21.7723 20.2069 21.9721 19.6967 22.1425 19.1812C22.1063 19.166 22.0702 19.1508 22.0341 19.1356C22.0695 19.1505 22.105 19.1653 22.1404 19.1802C22.1887 19.0341 22.235 18.888 22.2781 18.7409H22.2802C22.2855 18.7245 22.29 18.7073 22.2944 18.6907L22.2944 18.6906L22.2971 18.6804C22.1549 18.6204 22.0123 18.561 21.8697 18.5016C21.7517 18.4525 21.6337 18.4033 21.5157 18.3538C21.502 18.4028 21.4883 18.4518 21.4736 18.5009C21.4413 18.6115 21.4054 18.7213 21.3692 18.8318L21.3611 18.8567C21.5333 18.927 21.7051 18.9982 21.8764 19.0697C21.7054 18.9984 21.5343 18.9279 21.3632 18.8578ZM22.8376 15.2672C22.7035 15.2114 22.5697 15.1553 22.4359 15.0992C22.3021 15.0432 22.1682 14.9871 22.0342 14.9312C22.0184 16.053 21.8417 17.2101 21.5178 18.3538C21.7786 18.4623 22.0384 18.5708 22.2992 18.6804C22.6304 17.542 22.8134 16.3869 22.8387 15.2672H22.8376Z" fill="#FE904C"/>
</g>
<g filter="url(#filter4_d_125_480)">
<path d="M20.2401 22.7874C20.2401 22.8208 20.2433 22.8521 20.2485 22.8844C20.4105 22.6653 20.5672 22.4347 20.7207 22.1937C20.4462 22.2542 20.2401 22.4963 20.2401 22.7874Z" fill="#EBB120"/>
</g>
<g filter="url(#filter5_d_125_480)">
<path d="M20.2253 22.778C20.2253 22.8197 20.2295 22.8604 20.2369 22.9001C20.2411 22.8949 20.2443 22.8897 20.2485 22.8844C20.2432 22.8531 20.2401 22.8208 20.2401 22.7874C20.2401 22.4963 20.4462 22.2542 20.7207 22.1937C20.7291 22.1801 20.7386 22.1665 20.747 22.1519C20.4504 22.2083 20.2253 22.466 20.2253 22.777V22.778Z" fill="#EBB120"/>
</g>
</g>
<defs>
<filter id="filter0_d_125_480" x="-1.15576" y="2.35205" width="32.7454" height="37.8163" filterUnits="userSpaceOnUse" color-interpolation-filters="sRGB">
<feFlood flood-opacity="0" result="BackgroundImageFix"/>
<feColorMatrix in="SourceAlpha" type="matrix" values="0 0 0 0 0 0 0 0 0 0 0 0 0 0 0 0 0 0 127 0" result="hardAlpha"/>
<feOffset dy="4"/>
<feGaussianBlur stdDeviation="5"/>
<feComposite in2="hardAlpha" operator="out"/>
<feColorMatrix type="matrix" values="0 0 0 0 0 0 0 0 0 0 0 0 0 0 0 0 0 0 0.5 0"/>
<feBlend mode="normal" in2="BackgroundImageFix" result="effect1_dropShadow_125_480"/>
<feBlend mode="normal" in="SourceGraphic" in2="effect1_dropShadow_125_480" result="shape"/>
</filter>
<filter id="filter1_d_125_480" x="-6.22156" y="3.53681" width="36.1804" height="35.1747" filterUnits="userSpaceOnUse" color-interpolation-filters="sRGB">
<feFlood flood-opacity="0" result="BackgroundImageFix"/>
<feColorMatrix in="SourceAlpha" type="matrix" values="0 0 0 0 0 0 0 0 0 0 0 0 0 0 0 0 0 0 127 0" result="hardAlpha"/>
<feOffset dy="4"/>
<feGaussianBlur stdDeviation="5"/>
<feComposite in2="hardAlpha" operator="out"/>
<feColorMatrix type="matrix" values="0 0 0 0 0 0 0 0 0 0 0 0 0 0 0 0 0 0 0.5 0"/>
<feBlend mode="normal" in2="BackgroundImageFix" result="effect1_dropShadow_125_480"/>
<feBlend mode="normal" in="SourceGraphic" in2="effect1_dropShadow_125_480" result="shape"/>
</filter>
<filter id="filter2_d_125_480" x="9.58069" y="9.26723" width="31.442" height="28.9201" filterUnits="userSpaceOnUse" color-interpolation-filters="sRGB">
<feFlood flood-opacity="0" result="BackgroundImageFix"/>
<feColorMatrix in="SourceAlpha" type="matrix" values="0 0 0 0 0 0 0 0 0 0 0 0 0 0 0 0 0 0 127 0" result="hardAlpha"/>
<feOffset dy="4"/>
<feGaussianBlur stdDeviation="5"/>
<feComposite in2="hardAlpha" operator="out"/>
<feColorMatrix type="matrix" values="0 0 0 0 0 0 0 0 0 0 0 0 0 0 0 0 0 0 0.5 0"/>
<feBlend mode="normal" in2="BackgroundImageFix" result="effect1_dropShadow_125_480"/>
<feBlend mode="normal" in="SourceGraphic" in2="effect1_dropShadow_125_480" result="shape"/>
</filter>
<filter id="filter3_d_125_480" x="4.57263" y="2.78114" width="28.2671" height="37.6677" filterUnits="userSpaceOnUse" color-interpolation-filters="sRGB">
<feFlood flood-opacity="0" result="BackgroundImageFix"/>
<feColorMatrix in="SourceAlpha" type="matrix" values="0 0 0 0 0 0 0 0 0 0 0 0 0 0 0 0 0 0 127 0" result="hardAlpha"/>
<feOffset dy="4"/>
<feGaussianBlur stdDeviation="5"/>
<feComposite in2="hardAlpha" operator="out"/>
<feColorMatrix type="matrix" values="0 0 0 0 0 0 0 0 0 0 0 0 0 0 0 0 0 0 0.5 0"/>
<feBlend mode="normal" in2="BackgroundImageFix" result="effect1_dropShadow_125_480"/>
<feBlend mode="normal" in="SourceGraphic" in2="effect1_dropShadow_125_480" result="shape"/>
</filter>
<filter id="filter4_d_125_480" x="10.2401" y="16.1937" width="20.4806" height="20.6908" filterUnits="userSpaceOnUse" color-interpolation-filters="sRGB">
<feFlood flood-opacity="0" result="BackgroundImageFix"/>
<feColorMatrix in="SourceAlpha" type="matrix" values="0 0 0 0 0 0 0 0 0 0 0 0 0 0 0 0 0 0 127 0" result="hardAlpha"/>
<feOffset dy="4"/>
<feGaussianBlur stdDeviation="5"/>
<feComposite in2="hardAlpha" operator="out"/>
<feColorMatrix type="matrix" values="0 0 0 0 0 0 0 0 0 0 0 0 0 0 0 0 0 0 0.5 0"/>
<feBlend mode="normal" in2="BackgroundImageFix" result="effect1_dropShadow_125_480"/>
<feBlend mode="normal" in="SourceGraphic" in2="effect1_dropShadow_125_480" result="shape"/>
</filter>
<filter id="filter5_d_125_480" x="10.2253" y="16.1519" width="20.5216" height="20.7482" filterUnits="userSpaceOnUse" color-interpolation-filters="sRGB">
<feFlood flood-opacity="0" result="BackgroundImageFix"/>
<feColorMatrix in="SourceAlpha" type="matrix" values="0 0 0 0 0 0 0 0 0 0 0 0 0 0 0 0 0 0 127 0" result="hardAlpha"/>
<feOffset dy="4"/>
<feGaussianBlur stdDeviation="5"/>
<feComposite in2="hardAlpha" operator="out"/>
<feColorMatrix type="matrix" values="0 0 0 0 0 0 0 0 0 0 0 0 0 0 0 0 0 0 0.5 0"/>
<feBlend mode="normal" in2="BackgroundImageFix" result="effect1_dropShadow_125_480"/>
<feBlend mode="normal" in="SourceGraphic" in2="effect1_dropShadow_125_480" result="shape"/>
</filter>
<linearGradient id="paint0_linear_125_480" x1="16.0723" y1="21.6834" x2="29.3222" y2="21.6834" gradientUnits="userSpaceOnUse">
<stop stop-color="#FDE453"/>
<stop offset="1" stop-color="#FF4444"/>
</linearGradient>
<clipPath id="clip0_125_480">
<rect width="27.2443" height="18.0966" fill="white" transform="translate(3.77844 8.35228)"/>
</clipPath>
</defs>
</svg>
