<svg width="234" height="115" viewBox="0 0 234 115" fill="none" xmlns="http://www.w3.org/2000/svg">
<path fill-rule="evenodd" clip-rule="evenodd" d="M213.475 88.9321C213.092 87.9371 212.779 87.1412 212.537 86.5442C212.296 85.9472 211.997 85.3929 211.628 84.867C211.258 84.3411 210.803 83.9289 210.221 83.5878C209.638 83.2608 208.913 83.0903 208.046 83.0903C207.179 83.0903 206.468 83.2608 205.885 83.5878C205.303 83.9147 204.834 84.3553 204.478 84.8812C204.123 85.4213 203.782 86.0894 203.469 86.8853C203.259 87.4293 203.068 87.9156 202.897 88.3528L202.894 88.3605C202.811 88.5716 202.733 88.7713 202.659 88.9605L194.77 108.988C194.443 109.784 194.216 110.409 194.074 110.864C193.932 111.319 193.861 111.745 193.861 112.171C193.861 112.896 194.159 113.55 194.77 114.133C195.367 114.701 196.064 115 196.845 115C197.769 115 198.437 114.73 198.85 114.19C199.262 113.65 199.745 112.612 200.328 111.063L201.806 107.111H214.343L215.821 110.977C216.02 111.461 216.247 112.001 216.531 112.626C216.816 113.252 217.057 113.707 217.299 114.019C217.541 114.318 217.839 114.559 218.18 114.73C218.536 114.9 218.948 114.986 219.445 114.986C220.284 114.986 221.009 114.687 221.606 114.09C222.203 113.493 222.501 112.839 222.501 112.129C222.501 111.418 222.188 110.338 221.549 108.831L213.49 88.9321H213.475ZM203.441 102.421L208.003 89.6996L212.651 102.421H203.441ZM39.6843 102.776C40.068 102.264 40.7077 102.009 41.5747 102.009L41.6031 101.994C42.3564 101.994 42.9961 102.264 43.522 102.776C44.0479 103.288 44.3179 103.942 44.3179 104.709C44.3179 105.69 44.0763 106.742 43.593 107.893C43.1098 109.044 42.3422 110.167 41.3046 111.262C40.267 112.37 38.9309 113.266 37.3248 113.948C35.7044 114.645 33.8282 114.986 31.682 114.986C30.0616 114.986 28.5834 114.829 27.2473 114.517C25.9254 114.218 24.7031 113.735 23.6228 113.081C22.5284 112.427 21.5334 111.574 20.6237 110.508C19.7993 109.542 19.1029 108.447 18.5343 107.253C17.9658 106.06 17.5252 104.78 17.2409 103.416C16.9566 102.051 16.8145 100.601 16.8145 99.0806C16.8145 96.5932 17.1698 94.3759 17.8947 92.4144C18.6196 90.4529 19.643 88.7757 20.9933 87.3828C22.3436 85.9898 23.9213 84.9238 25.7264 84.1989C27.5316 83.474 29.4646 83.1045 31.5114 83.1045C33.9988 83.1045 36.2304 83.6019 38.1776 84.5969C40.1249 85.5919 41.6173 86.8285 42.6549 88.2925C43.6925 89.7565 44.2042 91.1352 44.2042 92.4428C44.2042 93.1535 43.9626 93.7931 43.4509 94.3333C42.9392 94.8876 42.328 95.1577 41.6173 95.1577C40.8072 95.1577 40.2102 94.9729 39.8122 94.5891C39.4142 94.2053 38.9736 93.5515 38.4761 92.6276C37.6659 91.1068 36.6994 89.9555 35.6049 89.2021C34.5105 88.4488 33.146 88.065 31.5398 88.065C28.9814 88.065 26.9346 89.0458 25.4137 90.9931C23.8929 92.9403 23.1253 95.6978 23.1253 99.2938C23.1253 101.696 23.4665 103.686 24.1345 105.278C24.8026 106.87 25.7549 108.064 26.9915 108.845C28.2281 109.627 29.6779 110.025 31.3266 110.025C33.1176 110.025 34.6384 109.585 35.875 108.689C37.1258 107.794 38.0639 106.486 38.6893 104.766C38.9594 103.956 39.2863 103.288 39.6843 102.776ZM12.3517 110.38C12.9344 110.253 13.3751 110.196 13.702 110.196L13.6878 110.181C14.1568 110.181 14.569 110.366 14.9386 110.736C15.3081 111.105 15.4929 111.574 15.4929 112.115C15.4929 113.038 14.9812 113.749 13.972 114.232C12.9629 114.73 11.5131 114.972 9.62265 114.972C7.83173 114.972 6.46722 114.659 5.54333 114.062C4.61945 113.465 4.00825 112.626 3.72397 111.56C3.4397 110.494 3.29757 109.073 3.29757 107.296V96.2805H2.54425C1.71986 96.2805 1.09445 96.0957 0.653828 95.6978C0.213204 95.2998 0 94.8023 0 94.2053C0 93.6084 0.227413 93.1109 0.68225 92.7271C1.13709 92.3433 1.80513 92.1443 2.67217 92.1443H3.29757V88.6904C3.29757 87.7665 3.32599 87.0416 3.36863 86.5157C3.42549 85.9756 3.55341 85.535 3.78083 85.1512C4.00825 84.7675 4.32095 84.4405 4.74736 84.1989C5.15956 83.9573 5.64282 83.8294 6.15451 83.8294C6.87941 83.8294 7.54746 84.1136 8.13022 84.6537C8.5282 85.0233 8.78405 85.4639 8.88354 85.9898C8.98304 86.5157 9.0399 87.2691 9.0399 88.2356V92.1443H11.1435C11.9537 92.1443 12.5791 92.3433 13.0055 92.7271C13.4319 93.1109 13.6451 93.6084 13.6451 94.2053C13.6451 94.9729 13.3466 95.513 12.7354 95.8257C12.1243 96.1384 11.2572 96.2947 10.1201 96.2947H9.0541V106.855C9.0541 107.751 9.09674 108.447 9.1536 108.931C9.21045 109.414 9.38102 109.812 9.65108 110.11C9.92114 110.409 10.376 110.565 10.9872 110.565C11.3141 110.565 11.7831 110.494 12.3517 110.38ZM69.2345 107.012C69.2345 106.409 69.2423 105.837 69.2497 105.293V105.292V105.292V105.292V105.292C69.2564 104.797 69.2629 104.324 69.2629 103.871V100.445C69.2629 98.3131 68.9644 96.6075 68.3674 95.3141C67.7705 94.0206 66.7471 93.0825 65.3115 92.4855C63.8759 91.8886 61.886 91.5901 59.356 91.5901C57.096 91.5901 55.2056 91.9028 53.6989 92.514C52.1781 93.1252 51.0694 93.9211 50.3587 94.8734C49.648 95.8258 49.2927 96.8065 49.2927 97.8157C49.2927 98.4553 49.5343 98.9954 50.0034 99.4076C50.4724 99.8198 51.0268 100.033 51.6806 100.033C52.3913 100.033 52.8603 99.9051 53.0735 99.6492C53.2867 99.3934 53.6563 98.8533 54.1822 98.0431C54.7081 97.2329 55.3335 96.6217 56.0726 96.2095C56.8117 95.7973 57.9062 95.5983 59.3702 95.5983C61.0616 95.5983 62.1845 95.9537 62.7246 96.6644C63.2647 97.375 63.5632 98.4837 63.6343 100.005C62.4261 100.36 61.3032 100.658 60.2798 100.9C59.2565 101.142 58.0057 101.412 56.5701 101.71C55.1203 102.009 54.2248 102.193 53.8553 102.279C52.1212 102.663 50.7425 103.402 49.7475 104.51C48.7526 105.619 48.2551 106.955 48.2551 108.533C48.2551 109.698 48.5536 110.779 49.1648 111.773C49.7617 112.768 50.6288 113.55 51.7374 114.133C52.8461 114.716 54.1395 115 55.6178 115C57.2239 115 58.6879 114.73 59.9814 114.19C61.2748 113.65 62.6251 112.84 64.0038 111.759C64.6434 112.811 65.2546 113.607 65.8374 114.161C66.4059 114.716 66.9887 114.986 67.5857 114.986C68.2821 114.986 68.9075 114.744 69.4619 114.261C70.0162 113.778 70.2863 113.237 70.2863 112.655C70.2863 112.314 70.1015 111.56 69.7462 110.395C69.3908 109.229 69.206 108.092 69.206 107.012H69.2345ZM63.6343 104.254C63.6343 106.244 63.3784 107.68 62.8525 108.547C62.3977 109.329 61.7012 109.968 60.7347 110.466C59.7682 110.963 58.7306 111.219 57.5935 111.219C56.5274 111.219 55.6604 110.921 55.0066 110.309C54.3527 109.698 54.0116 108.959 54.0116 108.092C54.0116 107.225 54.2959 106.6 54.8502 106.131C55.4046 105.662 56.0015 105.349 56.6127 105.178C57.2239 105.022 58.3468 104.766 59.9529 104.425C61.5591 104.084 62.7815 103.757 63.6201 103.444V104.269L63.6343 104.254ZM100.292 91.6896C101.87 91.6896 103.22 92.0023 104.358 92.6135L104.315 92.585C105.452 93.2104 106.305 94.0917 106.859 95.243C107.357 96.2806 107.598 97.9152 107.598 100.147V111.361C107.598 112.569 107.314 113.479 106.774 114.076C106.234 114.687 105.48 114.986 104.613 114.986C103.746 114.986 103.036 114.687 102.481 114.076C101.927 113.465 101.657 112.569 101.657 111.375V101.724C101.657 100.488 101.6 99.4929 101.501 98.7538C101.401 98.0004 101.117 97.375 100.648 96.8776C100.179 96.3801 99.4823 96.1242 98.5442 96.1242C97.7766 96.1242 97.066 96.3374 96.3837 96.7923C95.7014 97.2329 95.1755 97.8441 94.7918 98.5974C94.3796 99.5639 94.1663 101.27 94.1663 103.729V111.361C94.1663 112.569 93.8821 113.479 93.3419 114.076C92.8018 114.687 92.0485 114.986 91.1815 114.986C90.3145 114.986 89.6038 114.673 89.0636 114.076C88.5235 113.479 88.2535 112.569 88.2535 111.361V102.208C88.2535 100.758 88.2108 99.635 88.1113 98.839C88.0118 98.0431 87.756 97.3892 87.3154 96.8776C86.8747 96.3659 86.1925 96.11 85.2544 96.11C83.3782 96.11 82.1416 96.7496 81.5446 98.0431C80.9476 99.3365 80.6492 101.184 80.6492 103.601V111.361C80.6492 112.555 80.3791 113.451 79.839 114.062C79.2989 114.673 78.574 114.972 77.7069 114.972C76.8399 114.972 76.1292 114.673 75.5749 114.062C75.0205 113.451 74.7505 112.555 74.7505 111.361V94.9303C74.7505 93.85 75.0063 93.0256 75.5038 92.4713C76.0013 91.917 76.6835 91.6327 77.4653 91.6327C78.247 91.6327 78.9009 91.9028 79.4268 92.4287C79.9527 92.9546 80.2227 93.6795 80.2227 94.6034V95.1435C81.2177 93.9495 82.2837 93.0683 83.4208 92.514C84.5579 91.9596 85.7519 91.6753 87.2017 91.6753C88.6515 91.6753 89.888 91.9738 90.9256 92.5424C91.9632 93.1251 92.8303 93.9922 93.4983 95.1577C94.4648 93.978 95.5024 93.1109 96.6111 92.5424C97.7198 91.9738 98.9422 91.6896 100.292 91.6896ZM132.742 104.084C133.566 103.657 133.978 102.719 133.978 101.27C133.978 99.7203 133.58 98.1852 132.784 96.6786C131.988 95.1719 130.78 93.9496 129.174 93.0114C127.568 92.0591 125.649 91.5901 123.403 91.5901C121.683 91.5901 120.106 91.8601 118.699 92.4145C117.277 92.9688 116.097 93.7648 115.117 94.8024C114.15 95.84 113.411 97.0908 112.914 98.5406C112.402 99.9904 112.16 101.568 112.16 103.26C112.16 106.87 113.184 109.713 115.23 111.816C117.277 113.92 120.148 114.972 123.83 114.972C125.436 114.972 126.871 114.758 128.108 114.346C129.345 113.92 130.382 113.394 131.207 112.754C132.031 112.115 132.642 111.447 133.04 110.75C133.438 110.054 133.651 109.457 133.651 108.931C133.651 108.348 133.467 107.893 133.111 107.566C132.742 107.239 132.273 107.083 131.676 107.083C131.135 107.083 130.709 107.211 130.411 107.467C129.7 108.135 129.117 108.675 128.662 109.059C128.207 109.457 127.724 109.826 127.184 110.167C126.644 110.508 126.104 110.764 125.535 110.921C124.967 111.077 124.341 111.162 123.659 111.162C122.636 111.162 121.698 110.906 120.845 110.409C119.992 109.911 119.31 109.158 118.798 108.163C118.286 107.168 118.031 106.017 118.016 104.709H129.245C130.752 104.709 131.903 104.496 132.742 104.07V104.084ZM118.016 101.469C118.215 99.5355 118.77 98.0715 119.694 97.0766C120.617 96.0816 121.783 95.5983 123.218 95.5983C124.725 95.5983 125.933 96.0816 126.843 97.0623C127.767 98.0431 128.293 99.5071 128.435 101.469H118.031H118.016ZM149.33 91.6327C150.538 91.6327 151.703 91.9454 152.84 92.5424L152.826 92.5282C153.963 93.1394 154.532 93.9353 154.532 94.9303C154.532 95.6268 154.29 96.2095 153.807 96.6643C153.324 97.1192 152.798 97.3466 152.243 97.3466C152.03 97.3466 151.533 97.2187 150.722 96.9628C149.912 96.707 149.202 96.5791 148.59 96.5791C147.752 96.5791 147.07 96.8065 146.529 97.2471C146.004 97.6877 145.591 98.3416 145.293 99.2086C144.994 100.076 144.795 101.113 144.682 102.307C144.568 103.501 144.511 104.965 144.511 106.685V111.489C144.511 112.655 144.227 113.536 143.687 114.105C143.147 114.673 142.45 114.972 141.611 114.972C140.773 114.972 140.091 114.673 139.565 114.09C139.039 113.508 138.769 112.641 138.769 111.489V95.4988C138.769 92.9262 139.707 91.6327 141.569 91.6327C142.521 91.6327 143.203 91.9454 143.63 92.5424C144.056 93.1394 144.284 94.0348 144.326 95.2146C145.023 94.0348 145.719 93.1394 146.444 92.5424C147.155 91.9312 148.121 91.6327 149.33 91.6327ZM176.336 107.012C176.336 106.409 176.343 105.837 176.351 105.293C176.358 104.797 176.364 104.324 176.364 103.871V100.445C176.364 98.3131 176.066 96.6075 175.469 95.3141C174.872 94.0206 173.848 93.0825 172.413 92.4855C170.977 91.8886 168.987 91.5901 166.457 91.5901C164.197 91.5901 162.307 91.9028 160.8 92.514C159.279 93.1252 158.171 93.9211 157.46 94.8734C156.749 95.8258 156.394 96.8065 156.394 97.8157C156.394 98.4553 156.635 98.9954 157.105 99.4076C157.574 99.8198 158.128 100.033 158.782 100.033C159.492 100.033 159.962 99.9051 160.175 99.6492C160.388 99.3934 160.757 98.8533 161.283 98.0431C161.809 97.2329 162.435 96.6217 163.174 96.2095C163.913 95.7973 165.007 95.5983 166.471 95.5983C168.163 95.5983 169.286 95.9537 169.826 96.6644C170.366 97.375 170.664 98.4837 170.735 100.005C169.527 100.36 168.404 100.658 167.381 100.9C166.358 101.142 165.107 101.412 163.671 101.71C162.221 102.009 161.326 102.193 160.956 102.279C159.222 102.663 157.844 103.402 156.849 104.51C155.854 105.619 155.356 106.955 155.356 108.533C155.356 109.698 155.655 110.779 156.266 111.773C156.863 112.768 157.73 113.55 158.839 114.133C159.947 114.716 161.241 115 162.719 115C164.325 115 165.789 114.73 167.083 114.19C168.376 113.65 169.726 112.84 171.105 111.759C171.745 112.811 172.356 113.607 172.939 114.161C173.507 114.716 174.09 114.986 174.687 114.986C175.383 114.986 176.009 114.744 176.563 114.261C177.117 113.778 177.387 113.237 177.387 112.655C177.387 112.314 177.203 111.56 176.847 110.395C176.492 109.229 176.307 108.092 176.307 107.012H176.336ZM170.735 104.254C170.735 106.244 170.48 107.68 169.954 108.547C169.499 109.329 168.802 109.968 167.836 110.466C166.869 110.963 165.832 111.219 164.695 111.219C163.629 111.219 162.762 110.921 162.108 110.309C161.454 109.698 161.113 108.959 161.113 108.092C161.113 107.225 161.397 106.6 161.951 106.131C162.506 105.662 163.103 105.349 163.714 105.178C164.325 105.022 165.448 104.766 167.054 104.425C168.66 104.084 169.883 103.757 170.721 103.444V104.269L170.735 104.254ZM183.711 109.585C184.322 108.973 185.061 108.661 185.942 108.661C186.824 108.661 187.577 108.959 188.202 109.57C188.828 110.182 189.141 110.921 189.141 111.788C189.141 112.783 188.828 113.564 188.202 114.133C187.577 114.701 186.866 114.986 185.999 114.986C185.132 114.986 184.379 114.701 183.754 114.147C183.114 113.579 182.801 112.797 182.801 111.788C182.801 110.935 183.114 110.196 183.711 109.585ZM230.404 83.1045C231.356 83.1045 232.109 83.4172 232.692 84.0426L232.678 84.0568C233.261 84.668 233.545 85.6203 233.545 86.8995V111.191C233.545 112.47 233.261 113.422 232.678 114.048C232.095 114.687 231.285 115 230.389 115C229.494 115 228.755 114.687 228.172 114.048C227.589 113.408 227.305 112.456 227.305 111.191V86.8995C227.305 85.6345 227.604 84.6822 228.172 84.0568C228.755 83.4172 229.451 83.1045 230.404 83.1045Z" fill="#E44B09"/>
<circle cx="115.654" cy="40" r="40" fill="#00199F"/>
<g clip-path="url(#clip0_125_569)">
<g filter="url(#filter0_d_125_569)">
<path d="M119.309 20.5029C112.888 16.3958 103.636 21.5499 98.6484 32.0154C98.3383 32.6665 97.6652 34.1429 97.4032 34.8011C97.4032 34.8011 99.4296 33.8113 99.5137 33.6348C99.6219 33.4083 100.117 32.3684 100.228 32.149C104.829 23.0691 112.783 18.5543 118.028 21.9076C123.398 25.3421 123.614 35.81 119.073 45.3311C114.533 54.8545 106.958 59.8297 101.588 56.3952C99.3911 54.9881 97.9561 52.3741 97.3311 49.1304C96.7854 49.202 96.2542 49.1423 95.8696 49.0684C96.5571 53.1802 98.3719 56.5646 101.244 58.401C107.665 62.5081 116.917 57.354 121.905 46.8885C126.893 36.4253 125.732 24.6099 119.311 20.5029H119.309Z" fill="white"/>
</g>
<g filter="url(#filter1_d_125_569)">
<path d="M96.8647 39.9743C94.533 39.9743 92.6412 41.8298 92.6412 44.1171C92.6412 46.4043 94.533 48.2599 96.8647 48.2599C99.1964 48.2599 101.088 46.4043 101.088 44.1171C101.088 41.8298 99.1988 39.9743 96.8647 39.9743Z" fill="white"/>
<path d="M96.8647 38.9749C99.7493 38.9749 102.095 41.2813 102.095 44.1171C102.095 45.0592 101.833 45.9392 101.381 46.6977H114.275C110.052 53.7001 104.927 55.1168 101.862 53.4926C99.2877 52.1284 98.5281 49.6766 98.3983 49.1757C98.6195 50.1226 98.8719 51.0217 99.1892 51.8446C100.338 54.5301 102.43 56.4835 105.302 56.4835C110.749 56.4835 115.691 50.0892 118.162 44.9041C122.513 35.7814 122.316 25.8406 117.482 22.7472C113.285 20.064 107.033 23.2671 102.692 29.8951C110.259 19.6514 117.477 21.6834 118.79 28.631C118.944 29.4515 119.023 30.3363 119.035 31.2713C117.177 31.0113 115.499 30.8563 113.997 30.768C108.086 30.4222 108.086 31.3738 99.3358 36.3085C88.1293 36.4182 84.2905 40.8591 84.2905 40.8591V41.9992C85.2856 41.608 87.3313 40.9474 89.8168 40.9474L87.9755 44.5321C87.9755 44.5321 85.5549 44.835 84.2905 45.0687V46.6977H92.3456C91.8961 45.9369 91.6317 45.0568 91.6317 44.1171C91.6317 41.2813 93.9778 38.9749 96.8623 38.9749H96.8647ZM110.528 32.5711C111.951 32.2825 115.076 32.4089 118.982 32.9861C118.896 34.1906 118.701 35.4522 118.41 36.7449C114.715 36.7974 111.324 36.6782 108.05 36.7306C108.29 36.3323 108.422 35.8338 107.975 35.5357C107.389 35.1493 106.367 35.7766 105.598 36.8117C104.444 36.8713 103.297 36.962 102.151 37.1027C102.151 37.1027 107.752 33.134 110.525 32.5711H110.528Z" fill="white"/>
</g>
<g filter="url(#filter2_d_125_569)">
<path fill-rule="evenodd" clip-rule="evenodd" d="M133.541 45.3878L133.541 45.3878C133.777 45.4446 134.01 45.5005 134.234 45.5624C134.989 45.4078 135.738 45.2554 136.484 45.1039L136.485 45.1036L136.485 45.1036C139.029 44.5865 141.526 44.0788 144.013 43.5256C144.383 43.4445 144.842 42.977 144.914 42.6193C144.965 42.376 144.472 41.8727 144.119 41.7249C139.166 39.6311 134.205 37.5552 129.244 35.4791L127.852 34.8965C127.794 37.4557 127.376 40.0935 126.619 42.698L127.495 43.0646C128.986 43.6892 130.476 44.3136 131.972 44.928L131.975 44.9256C132.482 45.1337 133.021 45.263 133.541 45.3878ZM143.866 46.1992C143.234 47.7209 142.676 49.0684 142.075 50.5209C142.525 50.7092 142.935 50.8807 143.342 51.0506L143.343 51.051L143.343 51.0511C143.802 51.2426 144.255 51.4322 144.756 51.6418L145.168 50.6546L145.17 50.6495C145.627 49.5567 146.073 48.4893 146.563 47.3202C145.865 47.0294 145.238 46.769 144.573 46.4929L143.866 46.1992ZM130.335 45.6363C132.698 46.7454 134.96 46.867 137.407 46.2159L137.41 46.2183C138.502 45.9258 139.614 45.7056 140.839 45.4628C141.423 45.3471 142.033 45.2263 142.679 45.0902L142.493 45.5284C141.579 47.6892 140.759 49.626 139.873 51.7158C136.803 50.4396 133.826 49.2034 130.821 47.9554C129.81 47.5358 128.797 47.1148 127.775 46.6905C127.681 46.6524 126.242 49.5001 126.153 49.8006C125.99 50.3501 126.041 50.9105 126.093 51.4712C126.138 51.9642 126.183 52.4575 126.083 52.9441C125.9 53.8361 125.266 54.6351 124.434 55.0191C123.722 55.3458 122.881 55.3697 122.148 55.1025C121.803 54.9775 121.488 54.7931 121.173 54.609C120.923 54.4629 120.674 54.317 120.41 54.201C120.924 53.6214 121.424 53.0013 121.912 52.343C122.042 53.0132 122.638 53.5212 123.352 53.5212C124.165 53.5212 124.821 52.8701 124.821 52.064C124.821 51.2579 124.162 50.6067 123.352 50.6067C123.258 50.6067 123.167 50.6163 123.078 50.633C123.725 49.6122 124.335 48.5127 124.9 47.3297C125.422 46.1849 125.881 45.0186 126.268 43.8404C127.636 44.4152 128.994 45.0067 130.335 45.6363Z" fill="url(#paint0_linear_125_569)"/>
</g>
<g filter="url(#filter3_d_125_569)">
<path fill-rule="evenodd" clip-rule="evenodd" d="M125.744 24.753C126.876 26.8971 127.503 29.3609 127.741 31.7864V31.7841C127.84 32.8001 127.876 33.84 127.852 34.8941C127.546 34.7666 127.24 34.6384 126.934 34.5102L126.933 34.5098L126.932 34.5095L126.931 34.5091C126.626 34.3813 126.321 34.2534 126.016 34.1262C126.03 33.1507 125.994 32.1847 125.9 31.2379C125.484 26.9901 123.879 22.6136 120.446 20.0712C121.032 20.2858 121.602 20.5601 122.153 20.9059C123.624 21.8313 124.821 23.1526 125.744 24.753ZM124.484 43.1034C124.275 43.7538 124.05 44.3995 123.798 45.0404L118.63 53.8886L118.627 53.8885L118.629 53.8862L118.626 53.8885L118.627 53.8885C117.651 55.0467 116.616 56.081 115.537 56.9724L115.537 56.9749C114.915 57.489 114.282 57.9556 113.639 58.3722L113.634 58.3724C112.117 59.3527 110.545 60.061 108.963 60.4545C112.53 60.3615 116.763 58.3009 120.405 54.201C120.251 54.1342 120.095 54.0722 119.929 54.0317C119.813 54.0027 119.697 53.9792 119.58 53.9602C119.698 53.9791 119.815 54.0025 119.932 54.0317C120.097 54.0722 120.256 54.1342 120.407 54.201C120.922 53.6238 121.422 53.0037 121.91 52.3431C121.893 52.2524 121.883 52.1594 121.883 52.064C121.883 51.3533 122.398 50.7618 123.076 50.6354C123.722 49.6146 124.333 48.5151 124.898 47.3321C125.419 46.1873 125.876 45.021 126.266 43.8428C126.183 43.8079 126.1 43.773 126.017 43.7383C126.098 43.7723 126.18 43.8064 126.261 43.8404C126.371 43.5065 126.477 43.1726 126.576 42.8363H126.58C126.592 42.7987 126.603 42.7595 126.613 42.7214L126.619 42.698C126.294 42.5609 125.968 42.4252 125.642 42.2894L125.641 42.289C125.372 42.1769 125.102 42.0647 124.833 41.9515C124.802 42.0636 124.77 42.1756 124.737 42.2877C124.663 42.5407 124.581 42.7916 124.498 43.0442L124.479 43.101C124.873 43.2617 125.266 43.4244 125.657 43.5878C125.266 43.4248 124.875 43.2636 124.484 43.1034ZM123.798 45.0404L125.034 45.5597C124.772 45.451 124.51 45.3413 124.249 45.2319C124.098 45.1686 123.947 45.1054 123.797 45.0425L123.798 45.0404ZM127.854 34.8965C127.548 34.7689 127.242 34.6408 126.936 34.5126C126.63 34.3844 126.324 34.2562 126.018 34.1285C125.982 36.6925 125.578 39.3375 124.838 41.9515C125.434 42.1995 126.028 42.4475 126.624 42.698C127.381 40.0959 127.799 37.4557 127.857 34.8965H127.854Z" fill="#FE904C"/>
</g>
<g filter="url(#filter4_d_125_569)">
<path d="M121.917 52.0855C121.917 52.1618 121.924 52.2333 121.936 52.3073C122.306 51.8064 122.665 51.2793 123.016 50.7284C122.388 50.8667 121.917 51.42 121.917 52.0855Z" fill="#EBB120"/>
</g>
<g filter="url(#filter5_d_125_569)">
<path d="M121.883 52.064C121.883 52.1594 121.893 52.2524 121.91 52.343C121.919 52.3311 121.927 52.3192 121.936 52.3073C121.924 52.2357 121.917 52.1618 121.917 52.0855C121.917 51.42 122.388 50.8667 123.016 50.7284C123.035 50.6974 123.056 50.6664 123.076 50.633C122.398 50.7618 121.883 51.3509 121.883 52.0616V52.064Z" fill="#EBB120"/>
</g>
</g>
<defs>
<filter id="filter0_d_125_569" x="85.8696" y="13.0904" width="49.1322" height="60.7231" filterUnits="userSpaceOnUse" color-interpolation-filters="sRGB">
<feFlood flood-opacity="0" result="BackgroundImageFix"/>
<feColorMatrix in="SourceAlpha" type="matrix" values="0 0 0 0 0 0 0 0 0 0 0 0 0 0 0 0 0 0 127 0" result="hardAlpha"/>
<feOffset dy="4"/>
<feGaussianBlur stdDeviation="5"/>
<feComposite in2="hardAlpha" operator="out"/>
<feColorMatrix type="matrix" values="0 0 0 0 0 0 0 0 0 0 0 0 0 0 0 0 0 0 0.5 0"/>
<feBlend mode="normal" in2="BackgroundImageFix" result="effect1_dropShadow_125_569"/>
<feBlend mode="normal" in="SourceGraphic" in2="effect1_dropShadow_125_569" result="shape"/>
</filter>
<filter id="filter1_d_125_569" x="74.2905" y="15.7984" width="56.9839" height="54.6851" filterUnits="userSpaceOnUse" color-interpolation-filters="sRGB">
<feFlood flood-opacity="0" result="BackgroundImageFix"/>
<feColorMatrix in="SourceAlpha" type="matrix" values="0 0 0 0 0 0 0 0 0 0 0 0 0 0 0 0 0 0 127 0" result="hardAlpha"/>
<feOffset dy="4"/>
<feGaussianBlur stdDeviation="5"/>
<feComposite in2="hardAlpha" operator="out"/>
<feColorMatrix type="matrix" values="0 0 0 0 0 0 0 0 0 0 0 0 0 0 0 0 0 0 0.5 0"/>
<feBlend mode="normal" in2="BackgroundImageFix" result="effect1_dropShadow_125_569"/>
<feBlend mode="normal" in="SourceGraphic" in2="effect1_dropShadow_125_569" result="shape"/>
</filter>
<filter id="filter2_d_125_569" x="110.41" y="28.8965" width="46.1533" height="40.3888" filterUnits="userSpaceOnUse" color-interpolation-filters="sRGB">
<feFlood flood-opacity="0" result="BackgroundImageFix"/>
<feColorMatrix in="SourceAlpha" type="matrix" values="0 0 0 0 0 0 0 0 0 0 0 0 0 0 0 0 0 0 127 0" result="hardAlpha"/>
<feOffset dy="4"/>
<feGaussianBlur stdDeviation="5"/>
<feComposite in2="hardAlpha" operator="out"/>
<feColorMatrix type="matrix" values="0 0 0 0 0 0 0 0 0 0 0 0 0 0 0 0 0 0 0.5 0"/>
<feBlend mode="normal" in2="BackgroundImageFix" result="effect1_dropShadow_125_569"/>
<feBlend mode="normal" in="SourceGraphic" in2="effect1_dropShadow_125_569" result="shape"/>
</filter>
<filter id="filter3_d_125_569" x="98.963" y="14.0712" width="38.8962" height="60.3834" filterUnits="userSpaceOnUse" color-interpolation-filters="sRGB">
<feFlood flood-opacity="0" result="BackgroundImageFix"/>
<feColorMatrix in="SourceAlpha" type="matrix" values="0 0 0 0 0 0 0 0 0 0 0 0 0 0 0 0 0 0 127 0" result="hardAlpha"/>
<feOffset dy="4"/>
<feGaussianBlur stdDeviation="5"/>
<feComposite in2="hardAlpha" operator="out"/>
<feColorMatrix type="matrix" values="0 0 0 0 0 0 0 0 0 0 0 0 0 0 0 0 0 0 0.5 0"/>
<feBlend mode="normal" in2="BackgroundImageFix" result="effect1_dropShadow_125_569"/>
<feBlend mode="normal" in="SourceGraphic" in2="effect1_dropShadow_125_569" result="shape"/>
</filter>
<filter id="filter4_d_125_569" x="111.917" y="44.7284" width="21.0985" height="21.5789" filterUnits="userSpaceOnUse" color-interpolation-filters="sRGB">
<feFlood flood-opacity="0" result="BackgroundImageFix"/>
<feColorMatrix in="SourceAlpha" type="matrix" values="0 0 0 0 0 0 0 0 0 0 0 0 0 0 0 0 0 0 127 0" result="hardAlpha"/>
<feOffset dy="4"/>
<feGaussianBlur stdDeviation="5"/>
<feComposite in2="hardAlpha" operator="out"/>
<feColorMatrix type="matrix" values="0 0 0 0 0 0 0 0 0 0 0 0 0 0 0 0 0 0 0.5 0"/>
<feBlend mode="normal" in2="BackgroundImageFix" result="effect1_dropShadow_125_569"/>
<feBlend mode="normal" in="SourceGraphic" in2="effect1_dropShadow_125_569" result="shape"/>
</filter>
<filter id="filter5_d_125_569" x="111.883" y="44.633" width="21.1923" height="21.7101" filterUnits="userSpaceOnUse" color-interpolation-filters="sRGB">
<feFlood flood-opacity="0" result="BackgroundImageFix"/>
<feColorMatrix in="SourceAlpha" type="matrix" values="0 0 0 0 0 0 0 0 0 0 0 0 0 0 0 0 0 0 127 0" result="hardAlpha"/>
<feOffset dy="4"/>
<feGaussianBlur stdDeviation="5"/>
<feComposite in2="hardAlpha" operator="out"/>
<feColorMatrix type="matrix" values="0 0 0 0 0 0 0 0 0 0 0 0 0 0 0 0 0 0 0.5 0"/>
<feBlend mode="normal" in2="BackgroundImageFix" result="effect1_dropShadow_125_569"/>
<feBlend mode="normal" in="SourceGraphic" in2="effect1_dropShadow_125_569" result="shape"/>
</filter>
<linearGradient id="paint0_linear_125_569" x1="112.391" y1="49.5621" x2="142.676" y2="49.5621" gradientUnits="userSpaceOnUse">
<stop stop-color="#FDE453"/>
<stop offset="1" stop-color="#FF4444"/>
</linearGradient>
<clipPath id="clip0_125_569">
<rect width="62.2727" height="41.3636" fill="white" transform="translate(84.2905 19.0909)"/>
</clipPath>
</defs>
</svg>
