<svg width="40" height="40" viewBox="0 0 40 40" fill="none" xmlns="http://www.w3.org/2000/svg">
<rect width="40" height="40" rx="6" fill="#F1FAFF"/>
<g clipPath="url(#clip0_278_1661)">
<path d="M12.8803 17.0133C13.5203 17.6 14.0537 18.1333 14.6403 18.72C15.1203 19.2 15.1203 19.68 14.747 20.0533C14.3737 20.4267 13.8937 20.3733 13.467 19.9467C12.4003 18.88 11.387 17.8667 10.3737 16.8533C9.89367 16.3733 9.89367 15.9467 10.3737 15.4667C11.387 14.4 12.4537 13.3867 13.467 12.3733C13.8937 11.9467 14.427 11.9467 14.747 12.2667C15.067 12.5867 15.067 13.0667 14.587 13.4933C14.0003 14.0267 13.467 14.6133 12.8803 15.1467C12.8803 15.2 12.9337 15.2533 12.9337 15.3067C13.0937 15.3067 13.307 15.3067 13.467 15.3067C16.6137 15.3067 19.707 15.3067 22.8537 15.3067C26.107 15.3067 28.6137 17.3867 29.2537 20.5867C29.947 24.16 27.067 27.84 23.4403 27.9467C20.7737 28 18.107 27.9467 15.4937 27.9467C14.8537 27.9467 14.427 27.6267 14.427 27.1467C14.427 26.6667 14.8537 26.2933 15.4403 26.2933C17.947 26.2933 20.4003 26.2933 22.907 26.2933C25.307 26.2933 27.067 24.8 27.6003 22.5067C28.187 19.7867 26.0537 17.0133 23.2803 16.96C19.9203 16.9067 16.507 16.96 13.147 16.96C13.0937 16.96 13.0403 17.0133 12.8803 17.0133Z" fill="#009EF7"/>
</g>
<defs>
<clipPath id="clip0_278_1661">
<rect width="19.36" height="16" fill="white" transform="translate(10 12)"/>
</clipPath>
</defs>
</svg>
