<svg width="40" height="40" viewBox="0 0 40 40" fill="none" xmlns="http://www.w3.org/2000/svg">
<rect width="40" height="40" rx="6" fill="#009EF7"/>
<g clipPath="url(#clip0_278_1644)">
<path d="M28 25.1148C28 24.5902 27.6328 24.118 27.1082 23.9082C27.0557 23.9082 26.9508 23.8557 26.8984 23.8557V16.2492C27.7377 15.9869 28 15.5672 28 14.6754V13.5738C28 12.5246 27.5279 12 26.4262 12H25.4295C24.4328 12 24.118 12.2098 23.7508 13.1016H16.1967C15.882 12.2098 15.5148 12 14.518 12H14.1508C13.8885 12 13.5738 12 13.3115 12C12.577 12 12 12.577 12 13.3115C12 13.7836 12 14.3082 12 14.8852C12 15.6197 12.577 16.1967 13.3115 16.1967C13.7836 16.1967 14.3082 16.1967 14.8852 16.1967C15.6197 16.1967 16.1967 15.6197 16.1967 14.8852C16.1967 14.7803 16.1967 14.6754 16.1967 14.5705H23.8033C23.8033 14.9902 23.8033 15.4623 24.223 15.8295C24.5902 16.1967 25.0098 16.1967 25.482 16.1967V23.8033C25.3771 23.8033 25.3246 23.8033 25.2197 23.8033C24.3803 23.8033 23.8557 24.3803 23.8557 25.1672V25.3246C23.8557 25.7967 23.8557 26.2164 23.8557 26.6885C23.8557 27.4229 24.4328 27.9475 25.1672 28C25.4295 28 25.6918 28 25.9541 28C26.2164 28 26.4787 28 26.741 28C27.4754 28 28.0525 27.4229 28.0525 26.6885C28 26.1115 28 25.5869 28 25.1148ZM25.2197 14.7803V13.4164H26.6361V14.7803H25.2197ZM26.5836 25.2197V26.5836H25.2197V25.2197H26.5836ZM14.7803 13.4164V14.7803H13.4164V13.4164H14.7803Z" fill="white"/>
<path d="M22.1246 25.482C20.7607 25.482 19.3443 25.482 17.9803 25.482H16.2492C16.2492 24.9049 16.0918 24.4328 15.8295 24.1705C15.5672 23.9082 15.1475 23.7508 14.5705 23.7508V18.0853V18.0328V17.8754C14.5705 17.4033 14.3082 17.0885 13.8885 17.0885C13.6787 17.0885 13.5213 17.141 13.4164 17.2459C13.259 17.4033 13.2066 17.6131 13.2066 17.8754C13.2066 19.1869 13.2066 20.4984 13.2066 21.8098V23.8033C12.3148 24.0656 12 24.4853 12 25.3771V25.7443C12 26.059 12 26.3738 12 26.6361C12 27.2131 12.3672 27.7902 12.9967 27.8951C13.3639 27.9475 13.7311 27.9475 14.0984 27.9475C14.4656 27.9475 14.8328 27.9475 15.2 27.8951C15.6721 27.8426 16.0393 27.4754 16.1967 26.8459H18.2951C19.5541 26.8459 20.8656 26.8459 22.1246 26.8459C22.3869 26.8459 22.5967 26.741 22.7541 26.5836C22.859 26.4262 22.9115 26.2689 22.9115 26.059C22.9115 25.7443 22.5967 25.482 22.1246 25.482ZM14.7803 25.2197V26.5836H13.4164V25.2197H14.7803Z" fill="white"/>
</g>
<defs>
<clipPath id="clip0_278_1644">
<rect width="16" height="16" fill="white" transform="translate(12 12)"/>
</clipPath>
</defs>
</svg>
