<svg width="40" height="40" viewBox="0 0 40 40" fill="none" xmlns="http://www.w3.org/2000/svg">
<rect width="40" height="40" rx="6" fill="#F1FAFF"/>
<g clipPath="url(#clip0_278_1650)">
<path d="M27.7016 16.3115C27.1705 16.3115 26.6393 16.5475 26.2852 16.9016C25.8721 17.3147 25.6951 17.7869 25.6951 18.318C25.6951 18.8492 25.9311 19.3803 26.2852 19.7344C26.5213 19.9705 26.7574 20.0885 27.0525 20.2065C26.8754 20.1475 26.6984 20.1475 26.5213 20.2065C26.3443 20.2656 26.2262 20.4426 26.1672 20.6197C25.8721 21.5049 25.5771 22.3902 25.282 23.2754L24.9869 24.1606C24.9869 24.2197 24.9869 24.2197 24.9869 24.2787V24.3377C24.9869 24.6918 25.1639 24.9279 25.459 25.0459C25.282 24.9869 25.0459 24.9279 24.8689 24.9279C24.3377 24.9279 23.8066 25.1639 23.4525 25.518C23.0984 25.8721 22.8623 26.4033 22.8623 26.8754C22.8623 26.4623 22.5672 26.2262 22.0361 26.2262C21.623 26.2262 21.2689 26.2262 20.8557 26.2262H20.3246H19.7934C19.3803 26.2262 18.9672 26.2262 18.5541 26.2262C18.082 26.2262 17.7869 26.4623 17.7279 26.9344C17.7279 26.4033 17.4918 25.9311 17.1377 25.577C16.7246 25.1639 16.2525 24.9869 15.7213 24.9869C15.5443 24.9869 15.3672 25.0459 15.1902 25.0459C15.4852 24.9869 15.7213 24.7508 15.7213 24.2787V24.2197C15.7213 24.1606 15.7213 24.1016 15.6623 24.0426V23.9836C15.3082 22.9213 14.9541 21.859 14.6 20.7967C14.482 20.3246 14.1279 20.1475 13.7148 20.2065C14.0098 20.0885 14.2459 19.9705 14.423 19.7344C14.777 19.3213 15.0131 18.8492 15.0131 18.318C15.0131 17.2557 14.1279 16.3115 13.0066 16.3115C12.4754 16.3115 12.0033 16.5475 11.5902 16.9016C11.177 17.3147 11 17.7869 11 18.318C11 18.8492 11.2361 19.3803 11.5902 19.7344C11.9443 20.0885 12.4754 20.3246 13.0066 20.3246C13.1836 20.3246 13.4197 20.2656 13.5967 20.2065C13.4197 20.2656 13.3016 20.3836 13.2426 20.5016C13.1246 20.6787 13.1246 20.9147 13.1836 21.2098C13.2426 21.4459 13.3607 21.741 13.4197 21.977C13.4787 22.1541 13.5377 22.2721 13.5967 22.4492C13.6557 22.6852 13.7738 22.9213 13.8328 23.1574C13.9508 23.6885 14.1279 24.1016 14.2459 24.5738C14.3639 24.9279 14.6 25.1049 14.9541 25.1049C15.0131 25.1049 15.0721 25.1049 15.1311 25.1049C14.3639 25.4 13.8328 26.1082 13.8328 26.9344C13.8328 27.4656 14.0098 27.9967 14.423 28.3508C14.777 28.7639 15.3082 28.941 15.8393 28.941C16.3705 28.941 16.9016 28.7049 17.2557 28.3508C17.6098 27.9967 17.8459 27.4656 17.8459 26.9934C17.8459 27.4065 18.141 27.6426 18.6721 27.6426C19.2623 27.6426 19.7934 27.6426 20.3836 27.6426C20.9738 27.6426 21.5639 27.6426 22.1541 27.6426C22.6262 27.6426 22.9213 27.4065 22.9803 26.9934C23.0393 28.0557 23.9246 28.941 24.9869 28.941C25.518 28.941 26.0492 28.7049 26.4033 28.3508C26.8164 27.9967 26.9934 27.4656 26.9934 26.9344C26.9934 26.4033 26.7574 25.8721 26.4033 25.518C26.1672 25.282 25.9311 25.1639 25.6951 25.0459C25.7541 25.0459 25.8131 25.0459 25.8721 25.0459C26.1672 25.0459 26.4033 24.8688 26.5213 24.5738C26.6393 24.2787 26.6984 24.0426 26.8164 23.7475L27.1115 22.8623C27.2885 22.2721 27.4656 21.741 27.6426 21.1508C27.7607 20.7377 27.5836 20.3246 27.2295 20.2065C27.4066 20.2656 27.5836 20.3246 27.8197 20.3246C28.3508 20.3246 28.882 20.0885 29.2361 19.7344C29.5902 19.3213 29.8262 18.8492 29.8262 18.318C29.7082 17.2557 28.7639 16.3115 27.7016 16.3115ZM12.4754 18.318C12.4754 18.0229 12.7115 17.7869 13.0066 17.7869C13.1836 17.7869 13.3016 17.8459 13.3607 17.9639C13.4787 18.082 13.5377 18.2 13.4787 18.318C13.4787 18.4361 13.4197 18.6131 13.3016 18.7311C13.1836 18.8492 13.0656 18.9082 12.9475 18.9082C12.7115 18.9082 12.4754 18.6131 12.4754 18.318ZM24.8689 27.5246C24.5738 27.5246 24.3377 27.2885 24.3377 26.9934C24.3377 26.8754 24.3967 26.6983 24.5148 26.6393C24.6328 26.5213 24.7508 26.5213 24.9279 26.5213C25.0459 26.5213 25.223 26.5803 25.282 26.6983C25.4 26.8164 25.459 26.9344 25.4 27.0524C25.459 27.2885 25.1639 27.5246 24.8689 27.5246ZM16.1934 27.3475C16.0754 27.4656 15.9574 27.5246 15.8393 27.5246C15.5443 27.5246 15.3082 27.2885 15.3082 26.9934C15.3082 26.6983 15.5443 26.4623 15.8393 26.4623C15.9574 26.4623 16.1344 26.5213 16.1934 26.6393C16.3115 26.7574 16.3705 26.8754 16.3705 26.9934C16.3705 27.1115 16.3115 27.2885 16.1934 27.3475ZM27.1705 18.318C27.1705 18.0229 27.4066 17.7869 27.7016 17.7869C27.8787 17.7869 27.9967 17.8459 28.1148 17.9639C28.2328 18.082 28.2918 18.2 28.2328 18.318C28.2328 18.4361 28.1738 18.6131 28.0557 18.6721C27.9377 18.7902 27.8197 18.8492 27.7016 18.8492C27.4066 18.9082 27.1705 18.6131 27.1705 18.318Z" fill="#009EF7"/>
<path d="M14.8947 17.3738C14.9537 17.4328 15.0127 17.4918 15.0717 17.4918L15.1307 17.5508L15.1898 17.4918C15.3078 17.4918 15.3668 17.4918 15.4258 17.4328C15.5439 17.3738 15.6619 17.3148 15.7209 17.2557C16.7832 16.4885 17.6684 15.8393 18.4947 15.2492C18.6717 15.1311 18.7898 15.0131 18.8488 14.8361C18.9078 14.6 18.9078 14.423 18.7898 14.2459C18.8488 14.3049 18.9078 14.3639 18.9668 14.423C19.3799 14.8361 19.852 15.0131 20.3832 15.0131C21.4455 15.0131 22.3898 14.0689 22.3898 13.0066C22.3898 12.4754 22.2127 11.9443 21.7996 11.5902C21.4455 11.177 20.9143 11 20.3832 11C19.852 11 19.3209 11.2361 18.9668 11.5902C18.5537 11.9443 18.3766 12.4754 18.3766 13.0066C18.3766 13.4197 18.4947 13.7738 18.7307 14.1279C18.6717 14.0689 18.6717 14.0689 18.6127 14.0098C18.4357 13.8918 18.0816 13.7738 17.7275 14.0098L15.4258 15.6623C15.2488 15.8393 15.0127 16.0164 14.7766 16.1934C14.4816 16.4295 14.4225 16.7836 14.5996 17.0787C14.6586 17.1967 14.7766 17.3148 14.8947 17.3738ZM20.3832 12.4754C20.6783 12.4754 20.9143 12.7115 20.9143 13.0066C20.9143 13.3016 20.6783 13.5377 20.3832 13.5377C20.2652 13.5377 20.0881 13.4787 20.0291 13.3607C19.8521 13.3016 19.793 13.1246 19.852 13.0066C19.852 12.7115 20.0881 12.4754 20.3832 12.4754Z" fill="#009EF7"/>
<path d="M21.8587 14.4229C21.7407 14.718 21.8587 15.0131 22.1538 15.2492L22.803 15.7213C23.3341 16.1344 23.8653 16.4885 24.3964 16.9016L24.5735 17.0197C24.7505 17.1377 24.9276 17.3147 25.1636 17.4328C25.2817 17.4918 25.3997 17.5508 25.5177 17.5508C25.6358 17.5508 25.7538 17.4918 25.8718 17.4328C26.1079 17.3147 26.2259 17.0197 26.2259 16.6656V16.6065V16.5475L26.1669 16.4885C26.1079 16.3705 26.0489 16.2524 25.8718 16.1344C24.9276 15.4262 23.9833 14.718 23.039 14.0688C22.862 13.9508 22.5669 13.8328 22.3899 13.9508C22.1538 14.0098 21.9767 14.2459 21.8587 14.4229Z" fill="#009EF7"/>
</g>
<defs>
<clipPath id="clip0_278_1650">
<rect width="18.7082" height="18" fill="white" transform="translate(11 11)"/>
</clipPath>
</defs>
</svg>
