<svg width="40" height="40" viewBox="0 0 40 40" fill="none" xmlns="http://www.w3.org/2000/svg">
<rect width="40" height="40" rx="6" fill="#F1FAFF"/>
<g clipPath="url(#clip0_278_1657)">
<path d="M28 15.0933C28 14.9333 27.9467 14.7733 27.84 14.6667C27.04 13.8133 26.1867 13.0133 25.3333 12.16C25.2267 12.1067 25.0133 12 24.8533 12C21.2267 12 17.6 12 13.92 12C12.8 12 12 12.8 12 13.92C12 17.9733 12 22.0267 12 26.0267C12 27.2 12.8 28 13.9733 28C16 28 17.9733 28 20 28C22.0267 28 24.1067 28 26.1333 28C27.2 28 28 27.2 28 26.1333C28 22.4533 28 18.7733 28 15.0933ZM16.9067 13.28C18.1333 13.28 19.36 13.28 20.64 13.28C20.64 14.08 20.64 14.8267 20.64 15.6267C21.0667 15.6267 21.44 15.6267 21.8667 15.6267C21.8667 14.88 21.8667 14.08 21.8667 13.28C22.2933 13.28 22.72 13.28 23.1467 13.28C23.1467 14.1333 23.1467 14.9333 23.1467 15.7333C23.2 16.7467 22.9867 16.9067 22.0267 16.9067C20.5867 16.8533 19.1467 16.9067 17.7067 16.9067C17.1733 16.9067 16.9067 16.6933 16.9067 16.16C16.9067 15.1467 16.9067 14.24 16.9067 13.28ZM24.3733 26.72C21.44 26.72 18.56 26.72 15.68 26.72C15.68 26.6133 15.68 26.5067 15.68 26.4C15.68 24.7467 15.68 23.0933 15.68 21.44C15.68 20.8 15.8933 20.5867 16.5333 20.5867C18.88 20.5867 21.28 20.5867 23.6267 20.5867C24.2133 20.5867 24.4267 20.8 24.4267 21.3867C24.4267 23.04 24.4267 24.6933 24.4267 26.4C24.3733 26.5067 24.3733 26.6133 24.3733 26.72ZM26.72 25.92C26.72 26.5067 26.5067 26.72 25.8667 26.72C25.76 26.72 25.7067 26.72 25.5467 26.72C25.5467 26.4533 25.5467 26.24 25.5467 26.0267C25.5467 24.4267 25.5467 22.88 25.5467 21.28C25.5467 20.16 24.7467 19.36 23.5733 19.36C21.1733 19.36 18.72 19.36 16.32 19.36C15.1467 19.36 14.3467 20.16 14.3467 21.3333C14.3467 22.9867 14.3467 24.64 14.3467 26.3467C14.3467 26.4533 14.3467 26.6133 14.3467 26.7733C14.1333 26.7733 13.9733 26.7733 13.76 26.7733C13.44 26.72 13.1733 26.5067 13.1733 26.1333C13.1733 25.6533 13.1733 25.2267 13.1733 24.7467C13.1733 21.1733 13.1733 17.6533 13.1733 14.08C13.1733 13.4933 13.3867 13.28 13.9733 13.28C14.5067 13.28 14.9867 13.28 15.5733 13.28C15.5733 13.3867 15.5733 13.5467 15.5733 13.6533C15.5733 14.5067 15.5733 15.3067 15.5733 16.16C15.5733 17.3867 16.3733 18.1867 17.6 18.1867C19.2 18.1867 20.7467 18.1867 22.3467 18.1867C23.4667 18.1867 24.2667 17.3867 24.2667 16.2133C24.2667 15.2533 24.2667 14.2933 24.2667 13.2267C24.4267 13.28 24.5333 13.3333 24.64 13.3867C25.28 14.0267 25.92 14.6667 26.56 15.3067C26.6667 15.4133 26.6667 15.5733 26.6667 15.7333C26.7733 19.0933 26.72 22.5067 26.72 25.92Z" fill="#009EF7"/>
</g>
<defs>
<clipPath id="clip0_278_1657">
<rect width="16" height="16" fill="white" transform="translate(12 12)"/>
</clipPath>
</defs>
</svg>
